<?xml version="1.0" encoding="utf-8"?>
<!-- Generator: Adobe Illustrator 23.0.1, SVG Export Plug-In . SVG Version: 6.00 Build 0)  -->
<!DOCTYPE svg PUBLIC "-//W3C//DTD SVG 1.1//EN" "http://www.w3.org/Graphics/SVG/1.1/DTD/svg11.dtd" [
	<!ENTITY ns_flows "http://ns.adobe.com/Flows/1.0/">
	<!ENTITY ns_extend "http://ns.adobe.com/Extensibility/1.0/">
	<!ENTITY ns_ai "http://ns.adobe.com/AdobeIllustrator/10.0/">
	<!ENTITY ns_graphs "http://ns.adobe.com/Graphs/1.0/">
	<!ENTITY ns_vars "http://ns.adobe.com/Variables/1.0/">
	<!ENTITY ns_imrep "http://ns.adobe.com/ImageReplacement/1.0/">
	<!ENTITY ns_sfw "http://ns.adobe.com/SaveForWeb/1.0/">
	<!ENTITY ns_custom "http://ns.adobe.com/GenericCustomNamespace/1.0/">
	<!ENTITY ns_adobe_xpath "http://ns.adobe.com/XPath/1.0/">
]>
<svg version="1.1" xmlns:x="&ns_extend;" xmlns:i="&ns_ai;" xmlns:graph="&ns_graphs;"
	 xmlns="http://www.w3.org/2000/svg" xmlns:xlink="http://www.w3.org/1999/xlink" xmlns:a="http://ns.adobe.com/AdobeSVGViewerExtensions/3.0/"
	 x="0px" y="0px" viewBox="0 0 750 750" enable-background="new 0 0 750 750" xml:space="preserve">
<metadata>
	<sfw  xmlns="&ns_sfw;">
		<slices></slices>
		<sliceSourceBounds  bottomLeftOrigin="true" height="3841.242" width="3146" x="0" y="-2193.047"></sliceSourceBounds>
	</sfw>
</metadata>
<g id="FILL-BACKGROUND">
	<rect fill="#FFFFFF" width="750" height="750"/>
</g>
<g id="N-DIMENSIONS">
</g>
<g id="N-TEXT">
</g>
<g id="AG-DIAGRAM">
</g>
<g id="AG-TRANSPORT">
	<g id="POLYLINE_1114_">
		
			<path fill="none" stroke="#F368E0" stroke-width="2.5" stroke-linecap="round" stroke-linejoin="round" stroke-miterlimit="10" d="
			M441.582,322.781c2.756-2.092,5.528-4.194,8.511-5.957c0.746-0.441,1.507-0.858,2.297-1.215"/>
	</g>
	<g id="POLYLINE_1105_">
		
			<path fill="none" stroke="#F368E0" stroke-width="2.5" stroke-linecap="round" stroke-linejoin="round" stroke-miterlimit="10" d="
			M172.435,379.97c-3.589-0.083-7.176-0.163-10.764-0.283c-3.526-0.118-7.053-0.249-10.577-0.431
			c-2.124-0.11-4.248-0.243-6.372-0.365"/>
	</g>
	<g id="POLYLINE_1104_">
		
			<path fill="none" stroke="#F368E0" stroke-width="2.5" stroke-linecap="round" stroke-linejoin="round" stroke-miterlimit="10" d="
			M262.216,498.441c-4.169,0-8.344,0.072-12.511,0c-1.731-0.03-3.253-1.196-3.535-2.949c-0.075-0.462-0.036-0.935-0.025-1.401
			c0.033-1.33,0.067-2.661,0.1-3.991c0.045-1.81,0.116-3.622,0.096-5.433c-0.04-3.679-0.424-7.356-1.138-10.965
			c-0.723-3.657-1.788-7.246-3.176-10.706c-1.365-3.404-3.042-6.681-5.004-9.779c-1.949-3.077-4.177-5.975-6.649-8.65
			c-2.452-2.653-5.145-5.082-8.033-7.252c-2.972-2.234-6.155-4.19-9.489-5.835c-3.35-1.653-6.855-2.993-10.453-3.996
			c-3.525-0.983-7.142-1.644-10.787-1.969c-3.57-0.318-7.166-0.317-10.736,0.003c-3.647,0.328-7.263,0.99-10.79,1.976
			c-3.591,1.004-7.087,2.343-10.431,3.993c-3.335,1.646-6.518,3.605-9.491,5.84c-2.912,2.189-5.622,4.654-8.132,7.293
			c-2.511,2.639-4.774,5.515-6.742,8.581c-1.982,3.089-3.663,6.366-5.014,9.778c-1.35,3.408-2.366,6.949-3.032,10.554
			c-0.661,3.578-0.975,7.218-0.947,10.857c0.015,1.936,0.01,3.872,0.01,5.809"/>
	</g>
	<g id="POLYLINE_1103_">
		
			<line fill="none" stroke="#F368E0" stroke-width="2.5" stroke-linecap="round" stroke-linejoin="round" stroke-miterlimit="10" x1="125.56" y1="494.641" x2="137.31" y2="494.641"/>
	</g>
	<g id="POLYLINE_1102_">
		
			<path fill="none" stroke="#F368E0" stroke-width="2.5" stroke-linecap="round" stroke-linejoin="round" stroke-miterlimit="10" d="
			M243.623,318.299c1.3,1.44,2.619,2.864,3.9,4.32c0.334,0.379,0.7,0.816,0.776,1.335c0.091,0.616-0.296,1.063-0.799,1.37
			c-1.318,0.806-2.866,1.312-4.267,1.961c-1.535,0.711-3.065,1.437-4.583,2.185c-3.413,1.683-6.806,3.404-10.153,5.216
			c-3.22,1.743-6.395,3.568-9.546,5.434c-2.961,1.753-5.892,3.565-8.769,5.452c-3.308,2.169-6.571,4.392-9.804,6.67
			c-2.895,2.04-5.72,4.185-8.515,6.358c-2.841,2.209-5.62,4.498-8.357,6.834c-2.642,2.255-5.236,4.574-7.759,6.961
			c-0.721,0.682-1.438,1.37-2.156,2.055"/>
	</g>
	<g id="POLYLINE_1101_">
		
			<path fill="none" stroke="#F368E0" stroke-width="2.5" stroke-linecap="round" stroke-linejoin="round" stroke-miterlimit="10" d="
			M173.691,374.352c-1.876,1.841-4.482,2.546-7.052,2.612c-4.498,0.115-9.011,0.006-13.51,0.006c-1.963,0-3.926,0-5.888,0"/>
	</g>
	<g id="POLYLINE_1100_">
		
			<path fill="none" stroke="#F368E0" stroke-width="2.5" stroke-linecap="round" stroke-linejoin="round" stroke-miterlimit="10" d="
			M100.222,442.89c3.343,0,6.685,0,10.028,0c1.263,0,2.535-0.045,3.798,0c0.406,0.014,0.788,0.09,1.15,0.282
			c0.809,0.432,1.241,1.248,1.272,2.145c0.042,1.242-0.053,2.389-1.111,3.173c-1.048,0.777-2.482,0.959-3.74,1.028
			c-3.092,0.168-6.224,0.025-9.319,0.025c-1.691,0-3.381,0-5.072,0c-0.425,0-0.833,0.002-1.238-0.147
			c-0.846-0.311-1.454-1.09-1.558-1.983c-0.124-1.068-0.072-2.302,0.702-3.124c0.82-0.871,2.128-1.164,3.264-1.3
			C99.003,442.916,99.613,442.89,100.222,442.89z"/>
	</g>
	<g id="POLYLINE_1099_">
		
			<path fill="none" stroke="#F368E0" stroke-width="2.5" stroke-linecap="round" stroke-linejoin="round" stroke-miterlimit="10" d="
			M105.208,424.352c2.011-3.243,4.788-6.026,7.618-8.557c3.071-2.747,6.382-5.239,9.859-7.448c3.366-2.138,6.952-4.13,10.772-5.328
			c1.849-0.579,4.612-1.382,6.449-0.242c1.707,1.059,1.074,3.368,0.423,4.855c-0.729,1.665-1.898,3.123-3.067,4.501
			c-1.236,1.458-2.569,2.837-3.963,4.146c-3.106,2.918-6.476,5.549-10.027,7.904c-3.282,2.177-6.796,4.29-10.526,5.599
			c-2.168,0.761-5.043,1.703-7.332,0.859c-1.957-0.722-1.813-2.794-1.168-4.41C104.508,425.577,104.842,424.953,105.208,424.352z"/>
	</g>
	<g id="POLYLINE_1098_">
		
			<line fill="none" stroke="#F368E0" stroke-width="2.5" stroke-linecap="round" stroke-linejoin="round" stroke-miterlimit="10" x1="319.16" y1="484.459" x2="319.16" y2="318.163"/>
	</g>
	<g id="POLYLINE_1097_">
		
			<path fill="none" stroke="#F368E0" stroke-width="2.5" stroke-linecap="round" stroke-linejoin="round" stroke-miterlimit="10" d="
			M312.468,327.874c0-0.572-0.353-1.101-0.881-1.32c-0.266-0.111-0.537-0.123-0.819-0.084c-1.137,0.159-2.283,0.537-3.395,0.809
			c-4.281,1.047-8.526,2.264-12.719,3.619c-4.362,1.41-8.668,2.969-12.925,4.671c-3.924,1.569-7.782,3.315-11.566,5.196
			c-4.014,1.995-7.95,4.148-11.805,6.435c-3.861,2.291-7.663,4.687-11.373,7.217c-3.801,2.593-7.526,5.294-11.142,8.141
			c-3.458,2.723-6.827,5.584-9.948,8.691c-1.472,1.465-2.935,2.957-4.261,4.557c-0.544,0.656-1.423,1.426-1.213,2.381
			c0.271,1.23,1.527,1.124,2.499,1.139c3.328,0.049,6.655,0.098,9.983,0.147c5.678,0.084,11.355,0.168,17.033,0.251
			c6.738,0.099,13.475,0.199,20.213,0.298c6.524,0.096,13.047,0.193,19.571,0.289c4.961,0.073,9.922,0.146,14.883,0.22
			c2.116,0.031,4.269,0.182,6.384,0.094c1.288-0.054,1.479-1.081,1.479-2.138c0-4.267,0-8.534,0-12.801c0-6.66,0-13.32,0-19.981
			c0-5.163,0-10.327,0-15.49C312.468,329.434,312.468,328.654,312.468,327.874z"/>
	</g>
	<g id="POLYLINE_1096_">
		
			<path fill="none" stroke="#F368E0" stroke-width="2.5" stroke-linecap="round" stroke-linejoin="round" stroke-miterlimit="10" d="
			M482.983,359.162c-2.857-2.358-5.736-4.69-8.699-6.916c-3.096-2.325-6.257-4.554-9.507-6.659
			c-3.045-1.972-6.182-3.811-9.396-5.495c-3.235-1.695-6.557-3.224-9.937-4.606c-3.488-1.426-7.008-2.775-10.557-4.042
			c-3.566-1.273-7.146-2.5-10.767-3.609c-3.679-1.127-7.376-2.183-11.108-3.119c-3.592-0.9-7.212-1.702-10.853-2.38
			c-3.785-0.705-7.589-1.303-11.408-1.787c-3.863-0.49-7.738-0.862-11.619-1.165c-3.679-0.287-7.37-0.468-11.058-0.593
			c-3.682-0.125-7.371-0.192-11.056-0.178c-4.032,0.015-8.06,0.085-12.089,0.223c-3.778,0.13-7.556,0.36-11.322,0.691
			c-1.089,0.096-2.794-0.114-2.893,1.361c-0.136,2.032,0,4.12,0,6.155c0,4.587,0,9.175,0,13.762c0,5.667,0,11.333,0,17
			c0,5.208,0,10.416,0,15.624c0,3.299,0,6.599,0,9.898c0,0.456,0,0.912,0,1.367"/>
	</g>
	<g id="POLYLINE_1095_">
		
			<path fill="none" stroke="#F368E0" stroke-width="2.5" stroke-linecap="round" stroke-linejoin="round" stroke-miterlimit="10" d="
			M331.042,400.009c0.88-2.978,3.266-5.36,6.25-6.225c2.983-0.863,6.276-0.131,8.61,1.918c1.301,1.142,2.26,2.647,2.75,4.307"/>
	</g>
	<g id="POLYLINE_1094_">
		
			<path fill="none" stroke="#F368E0" stroke-width="2.5" stroke-linecap="round" stroke-linejoin="round" stroke-miterlimit="10" d="
			M348.651,405.19c-0.88,2.978-3.266,5.36-6.25,6.224c-2.983,0.864-6.276,0.131-8.61-1.918c-1.301-1.142-2.26-2.647-2.75-4.307"/>
	</g>
	<g id="POLYLINE_1093_">
		
			<line fill="none" stroke="#F368E0" stroke-width="2.5" stroke-linecap="round" stroke-linejoin="round" stroke-miterlimit="10" x1="347.538" y1="405.19" x2="347.538" y2="400.009"/>
	</g>
	<g id="POLYLINE_1092_">
		
			<path fill="none" stroke="#F368E0" stroke-width="2.5" stroke-linecap="round" stroke-linejoin="round" stroke-miterlimit="10" d="
			M350.939,405.19c2.323,0,3.459-2.96,1.735-4.515c-0.92-0.83-2.132-0.666-3.276-0.666c-4.289,0-8.578,0-12.867,0
			c-3.425,0-6.852-0.038-10.276,0c-1.012,0.011-1.939,0.422-2.445,1.343c-0.496,0.903-0.401,2.046,0.238,2.855
			c0.716,0.905,1.699,0.984,2.762,0.984c7.819,0,15.637,0,23.456,0C350.489,405.19,350.714,405.19,350.939,405.19z"/>
	</g>
	<g id="POLYLINE_1091_">
		
			<path fill="none" stroke="#F368E0" stroke-width="2.5" stroke-linecap="round" stroke-linejoin="round" stroke-miterlimit="10" d="
			M484.408,368.384c1.608,1.449,2.576,3.51,3.108,5.576c0.504,1.955,0.725,4.318,0.049,6.27c-0.337,0.972-1.042,1.604-1.988,1.974
			c-2.322,0.91-5.017,0.764-7.46,0.649c-1.594-0.076-3.249-0.044-4.829-0.297c-0.648-0.104-1.3-0.281-1.86-0.635
			c-1.356-0.858-1.821-2.609-2.066-4.094c-0.47-2.84-0.314-5.828,0.071-8.669c0.156-1.149,0.291-2.548,1.401-3.193
			c1.596-0.927,3.909-0.714,5.655-0.534c2.365,0.243,4.817,0.829,6.836,2.132C483.706,367.807,484.07,368.081,484.408,368.384z"/>
	</g>
	<g id="POLYLINE_1090_">
		
			<path fill="none" stroke="#F368E0" stroke-width="2.5" stroke-linecap="round" stroke-linejoin="round" stroke-miterlimit="10" d="
			M482.983,382.785c2.263-0.008,4.68,0.182,6.915-0.263c0.906-0.18,1.717-0.57,2.186-1.399c0.543-0.961,0.601-2.213,0.571-3.284
			c-0.029-1.035-0.286-2.144-1.137-2.815c-1.065-0.84-2.674-0.868-3.957-0.869"/>
	</g>
	<g id="POLYLINE_1089_">
		
			<line fill="none" stroke="#F368E0" stroke-width="2.5" stroke-linecap="round" stroke-linejoin="round" stroke-miterlimit="10" x1="482.983" y1="359.162" x2="482.983" y2="367.351"/>
	</g>
	<g id="POLYLINE_1088_">
		
			<line fill="none" stroke="#F368E0" stroke-width="2.5" stroke-linecap="round" stroke-linejoin="round" stroke-miterlimit="10" x1="482.983" y1="382.785" x2="482.983" y2="386.234"/>
	</g>
	<g id="POLYLINE_1087_">
		
			<path fill="none" stroke="#F368E0" stroke-width="2.5" stroke-linecap="round" stroke-linejoin="round" stroke-miterlimit="10" d="
			M469.249,370.788c2.033-0.945,4.522-0.081,5.531,1.921c1.008,2.002,0.221,4.518-1.749,5.588c-1.081,0.587-2.392,0.669-3.538,0.222
			"/>
	</g>
	<g id="POLYLINE_1086_">
		
			<path fill="none" stroke="#F368E0" stroke-width="2.5" stroke-linecap="round" stroke-linejoin="round" stroke-miterlimit="10" d="
			M666.21,427.962c-3.013-0.367-5.529-1.932-7.576-4.137c-1.431-1.542-2.662-3.262-4.002-4.882
			c-1.296-1.567-2.668-3.069-4.121-4.492c-2.945-2.882-6.155-5.488-9.637-7.694c-3.525-2.233-7.287-4.046-11.155-5.599
			c-3.875-1.556-7.852-2.872-11.863-4.029c-4.198-1.21-8.441-2.257-12.719-3.143c-4.288-0.888-8.612-1.598-12.955-2.15
			c-4.232-0.538-8.487-0.887-12.748-1.08c-4.261-0.193-8.534-0.2-12.797-0.031c-4.249,0.169-8.494,0.486-12.715,1.008
			c-4.273,0.529-8.533,1.211-12.727,2.193c-4.19,0.981-8.308,2.276-12.258,3.99c-3.811,1.654-7.429,3.699-10.888,5.995
			c-3.515,2.333-6.878,4.898-10.114,7.602c-3.243,2.71-6.462,5.544-9.25,8.729c-2.672,3.053-4.755,6.556-6.798,10.045
			c-2.166,3.701-4.171,7.487-5.957,11.387c-1.716,3.747-3.182,7.617-4.352,11.568c-1.194,4.032-2.092,8.147-2.723,12.304
			c-0.632,4.168-1.007,8.372-1.188,12.583c-0.09,2.109-0.114,4.219-0.132,6.33"/>
	</g>
	<g id="POLYLINE_1085_">
		
			<line fill="none" stroke="#F368E0" stroke-width="2.5" stroke-linecap="round" stroke-linejoin="round" stroke-miterlimit="10" x1="494.403" y1="365.138" x2="494.403" y2="426.118"/>
	</g>
	<g id="POLYLINE_1084_">
		
			<path fill="none" stroke="#F368E0" stroke-width="2.5" stroke-linecap="round" stroke-linejoin="round" stroke-miterlimit="10" d="
			M616.361,412.939c-1.026-2.079-2.365-5.179-1.064-7.464c0.99-1.74,3.217-1.989,5.019-1.844c4.51,0.364,8.897,2.674,12.7,4.975
			c4.096,2.478,7.921,5.426,11.411,8.7c3.429,3.217,6.669,6.792,9.057,10.864c1.344,2.293,3.127,5.663,2.091,8.421
			c-0.621,1.653-2.307,2.288-3.954,2.368c-4.333,0.211-8.832-2.059-12.498-4.126c-4.168-2.349-8.056-5.216-11.623-8.399
			c-3.515-3.137-6.813-6.621-9.418-10.56C617.454,414.927,616.88,413.949,616.361,412.939z"/>
	</g>
	<g id="POLYLINE_1083_">
		
			<path fill="none" stroke="#F368E0" stroke-width="2.5" stroke-linecap="round" stroke-linejoin="round" stroke-miterlimit="10" d="
			M621.149,413.925c-0.784-1.436-1.797-3.638-0.901-5.264c0.824-1.495,2.882-1.528,4.354-1.355c3.295,0.388,6.474,1.905,9.34,3.499
			c3.3,1.836,6.405,4.047,9.251,6.527c2.658,2.316,5.207,4.902,7.102,7.892c0.99,1.562,2.261,3.782,1.741,5.732
			c-0.432,1.619-2.158,2.023-3.627,1.994c-3.208-0.064-6.417-1.527-9.209-2.983c-3.308-1.726-6.419-3.847-9.291-6.225
			c-2.756-2.283-5.377-4.83-7.457-7.756C621.982,415.324,621.542,414.639,621.149,413.925z"/>
	</g>
	<g id="POLYLINE_1082_">
		
			<path fill="none" stroke="#F368E0" stroke-width="2.5" stroke-linecap="round" stroke-linejoin="round" stroke-miterlimit="10" d="
			M660.141,447.533c-6.916,0-13.832,0-20.749,0c-1.258,0-2.442,0.502-2.761,1.847c-0.277,1.169-0.137,2.682,0.786,3.539
			c1.038,0.964,2.66,1.169,4,1.242c2.829,0.154,5.694,0.025,8.525,0.025c4.161,0,8.322,0,12.483,0c1.313,0,2.662-0.009,3.301-1.397
			c0.48-1.042,0.391-2.734-0.333-3.666c-0.775-0.999-2.168-1.333-3.354-1.483C661.411,447.561,660.775,447.533,660.141,447.533z"/>
	</g>
	<g id="POLYLINE_1081_">
		
			<line fill="none" stroke="#F368E0" stroke-width="2.5" stroke-linecap="round" stroke-linejoin="round" stroke-miterlimit="10" x1="272.001" y1="484.459" x2="477.535" y2="484.459"/>
	</g>
	<g id="POLYLINE_1080_">
		
			<path fill="none" stroke="#F368E0" stroke-width="2.5" stroke-linecap="round" stroke-linejoin="round" stroke-miterlimit="10" d="
			M272.001,484.459c-2.467,1.44-4.935,2.88-7.402,4.32c-0.58,0.339-1.16,0.677-1.74,1.016c-0.145,0.084-0.556,0.234-0.642,0.384
			c-0.137,0.238,0,0.963,0,1.227c0,0.866,0,1.731,0,2.597c0,1.479,0,2.959,0,4.438"/>
	</g>
	<g id="POLYLINE_1079_">
		
			<line fill="none" stroke="#F368E0" stroke-width="2.5" stroke-linecap="round" stroke-linejoin="round" stroke-miterlimit="10" x1="262.216" y1="498.441" x2="484.951" y2="498.441"/>
	</g>
	<g id="POLYLINE_1078_">
		
			<line fill="none" stroke="#F368E0" stroke-width="2.5" stroke-linecap="round" stroke-linejoin="round" stroke-miterlimit="10" x1="484.951" y1="498.441" x2="484.951" y2="490.17"/>
	</g>
	<g id="POLYLINE_1077_">
		
			<line fill="none" stroke="#F368E0" stroke-width="2.5" stroke-linecap="round" stroke-linejoin="round" stroke-miterlimit="10" x1="484.951" y1="490.17" x2="477.535" y2="484.459"/>
	</g>
	<g id="POLYLINE_1076_">
		
			<path fill="none" stroke="#F368E0" stroke-width="2.5" stroke-linecap="round" stroke-linejoin="round" stroke-miterlimit="10" d="
			M514.764,485.359c0.045-5.144,0.794-10.234,2.358-15.141c1.532-4.808,3.801-9.375,6.701-13.504
			c2.952-4.203,6.56-7.949,10.655-11.051c4.063-3.078,8.588-5.52,13.387-7.236c4.749-1.698,9.763-2.66,14.802-2.855
			c5.154-0.199,10.335,0.41,15.303,1.794c4.864,1.355,9.516,3.456,13.75,6.206c4.282,2.782,8.132,6.221,11.373,10.168
			c3.255,3.964,5.889,8.432,7.786,13.198c1.859,4.669,3.007,9.62,3.387,14.632c0.39,5.142-0.017,10.344-1.217,15.36
			c-1.18,4.931-3.112,9.675-5.717,14.026c-2.605,4.35-5.875,8.293-9.665,11.662c-3.855,3.426-8.249,6.24-12.965,8.325
			c-4.597,2.031-9.504,3.356-14.497,3.922c-5.096,0.578-10.279,0.365-15.31-0.633c-5.009-0.994-9.859-2.764-14.333-5.226
			c-4.423-2.434-8.473-5.543-11.963-9.191c-3.565-3.728-6.548-8.005-8.807-12.643c-2.208-4.535-3.725-9.408-4.472-14.397
			C514.953,490.315,514.786,487.844,514.764,485.359z"/>
	</g>
	<g id="POLYLINE_1075_">
		
			<path fill="none" stroke="#F368E0" stroke-width="2.5" stroke-linecap="round" stroke-linejoin="round" stroke-miterlimit="10" d="
			M530.838,485.359c0.03-3.482,0.534-6.936,1.597-10.256c1.042-3.253,2.57-6.338,4.531-9.135c1.996-2.847,4.439-5.382,7.208-7.484
			c2.742-2.082,5.8-3.738,9.041-4.899c3.234-1.158,6.642-1.817,10.074-1.95c3.481-0.135,6.986,0.274,10.342,1.209
			c3.29,0.917,6.429,2.332,9.299,4.185c2.917,1.884,5.539,4.229,7.743,6.913c2.189,2.666,3.969,5.671,5.248,8.874
			c1.275,3.194,2.061,6.571,2.322,10.001c0.264,3.467-0.015,6.976-0.821,10.358c-0.798,3.349-2.11,6.57-3.878,9.524
			c-1.765,2.947-3.98,5.619-6.548,7.901c-2.604,2.314-5.573,4.222-8.76,5.628c-3.125,1.379-6.449,2.278-9.842,2.667
			c-3.45,0.395-6.965,0.247-10.371-0.429c-3.383-0.671-6.666-1.864-9.688-3.528c-3.012-1.659-5.763-3.771-8.141-6.255
			c-2.405-2.512-4.414-5.401-5.939-8.526c-1.509-3.093-2.539-6.417-3.047-9.821C530.962,488.684,530.852,487.026,530.838,485.359z"
			/>
	</g>
	<g id="POLYLINE_1074_">
		
			<path fill="none" stroke="#F368E0" stroke-width="2.5" stroke-linecap="round" stroke-linejoin="round" stroke-miterlimit="10" d="
			M552.643,485.359c0.006-2.453,0.767-4.872,2.18-6.879c1.41-2.003,3.434-3.541,5.74-4.367c2.305-0.826,4.847-0.92,7.207-0.267
			c2.362,0.653,4.495,2.039,6.05,3.933c1.549,1.887,2.492,4.239,2.679,6.673c0.188,2.451-0.4,4.936-1.663,7.044
			c-1.258,2.101-3.162,3.787-5.4,4.78c-2.231,0.99-4.75,1.276-7.145,0.805c-2.405-0.473-4.635-1.692-6.331-3.462
			c-1.689-1.763-2.808-4.038-3.178-6.45C552.689,486.57,552.645,485.965,552.643,485.359z"/>
	</g>
	<g id="POLYLINE_1073_">
		
			<path fill="none" stroke="#F368E0" stroke-width="2.5" stroke-linecap="round" stroke-linejoin="round" stroke-miterlimit="10" d="
			M533.382,485.359c0.028-3.22,0.493-6.413,1.477-9.483c0.963-3.007,2.376-5.86,4.189-8.446c1.845-2.632,4.104-4.977,6.664-6.92
			c2.536-1.924,5.362-3.457,8.359-4.53c2.99-1.07,6.142-1.681,9.315-1.803c3.219-0.124,6.459,0.252,9.562,1.118
			c3.042,0.849,5.944,2.156,8.598,3.869c2.698,1.742,5.122,3.91,7.159,6.392c2.024,2.465,3.67,5.243,4.852,8.205
			c1.179,2.953,1.905,6.076,2.147,9.247c0.245,3.204-0.013,6.451-0.759,9.577c-0.739,3.096-1.95,6.074-3.586,8.806
			c-1.631,2.724-3.679,5.197-6.054,7.305c-2.409,2.138-5.152,3.904-8.099,5.204c-2.89,1.275-5.962,2.105-9.1,2.466
			c-3.19,0.367-6.44,0.228-9.589-0.396c-3.128-0.621-6.163-1.723-8.957-3.262c-2.785-1.534-5.328-3.487-7.527-5.784
			c-2.223-2.321-4.083-4.994-5.491-7.883c-1.395-2.861-2.348-5.933-2.817-9.081C533.497,488.433,533.396,486.9,533.382,485.359z"/>
	</g>
	<g id="POLYLINE_1072_">
		
			<line fill="none" stroke="#F368E0" stroke-width="2.5" stroke-linecap="round" stroke-linejoin="round" stroke-miterlimit="10" x1="571.14" y1="515.869" x2="571.14" y2="495.347"/>
	</g>
	<g id="POLYLINE_1071_">
		
			<line fill="none" stroke="#F368E0" stroke-width="2.5" stroke-linecap="round" stroke-linejoin="round" stroke-miterlimit="10" x1="558.037" y1="495.347" x2="558.037" y2="515.869"/>
	</g>
	<g id="POLYLINE_1070_">
		
			<line fill="none" stroke="#F368E0" stroke-width="2.5" stroke-linecap="round" stroke-linejoin="round" stroke-miterlimit="10" x1="571.14" y1="515.869" x2="571.14" y2="495.347"/>
	</g>
	<g id="POLYLINE_1069_">
		
			<line fill="none" stroke="#F368E0" stroke-width="2.5" stroke-linecap="round" stroke-linejoin="round" stroke-miterlimit="10" x1="567.384" y1="496.972" x2="567.384" y2="516.439"/>
	</g>
	<g id="POLYLINE_1068_">
		
			<line fill="none" stroke="#F368E0" stroke-width="2.5" stroke-linecap="round" stroke-linejoin="round" stroke-miterlimit="10" x1="561.792" y1="516.439" x2="561.792" y2="496.972"/>
	</g>
	<g id="POLYLINE_1067_">
		
			<line fill="none" stroke="#F368E0" stroke-width="2.5" stroke-linecap="round" stroke-linejoin="round" stroke-miterlimit="10" x1="558.037" y1="495.347" x2="558.037" y2="515.869"/>
	</g>
	<g id="POLYLINE_1066_">
		
			<line fill="none" stroke="#F368E0" stroke-width="2.5" stroke-linecap="round" stroke-linejoin="round" stroke-miterlimit="10" x1="564.017" y1="473.427" x2="551.955" y2="456.824"/>
	</g>
	<g id="POLYLINE_1065_">
		
			<line fill="none" stroke="#F368E0" stroke-width="2.5" stroke-linecap="round" stroke-linejoin="round" stroke-miterlimit="10" x1="548.581" y1="458.571" x2="560.024" y2="474.32"/>
	</g>
	<g id="POLYLINE_1064_">
		
			<line fill="none" stroke="#F368E0" stroke-width="2.5" stroke-linecap="round" stroke-linejoin="round" stroke-miterlimit="10" x1="555.5" y1="477.607" x2="544.058" y2="461.858"/>
	</g>
	<g id="POLYLINE_1063_">
		
			<line fill="none" stroke="#F368E0" stroke-width="2.5" stroke-linecap="round" stroke-linejoin="round" stroke-miterlimit="10" x1="541.354" y1="464.526" x2="553.417" y2="481.129"/>
	</g>
	<g id="POLYLINE_1062_">
		
			<line fill="none" stroke="#F368E0" stroke-width="2.5" stroke-linecap="round" stroke-linejoin="round" stroke-miterlimit="10" x1="564.017" y1="473.427" x2="551.955" y2="456.824"/>
	</g>
	<g id="POLYLINE_1061_">
		
			<line fill="none" stroke="#F368E0" stroke-width="2.5" stroke-linecap="round" stroke-linejoin="round" stroke-miterlimit="10" x1="541.354" y1="464.526" x2="553.417" y2="481.129"/>
	</g>
	<g id="POLYLINE_1060_">
		
			<line fill="none" stroke="#F368E0" stroke-width="2.5" stroke-linecap="round" stroke-linejoin="round" stroke-miterlimit="10" x1="553.064" y1="482.214" x2="533.547" y2="488.556"/>
	</g>
	<g id="POLYLINE_1059_">
		
			<line fill="none" stroke="#F368E0" stroke-width="2.5" stroke-linecap="round" stroke-linejoin="round" stroke-miterlimit="10" x1="534.165" y1="492.304" x2="552.679" y2="486.289"/>
	</g>
	<g id="POLYLINE_1058_">
		
			<line fill="none" stroke="#F368E0" stroke-width="2.5" stroke-linecap="round" stroke-linejoin="round" stroke-miterlimit="10" x1="554.407" y1="491.607" x2="535.893" y2="497.622"/>
	</g>
	<g id="POLYLINE_1057_">
		
			<line fill="none" stroke="#F368E0" stroke-width="2.5" stroke-linecap="round" stroke-linejoin="round" stroke-miterlimit="10" x1="537.596" y1="501.018" x2="557.113" y2="494.676"/>
	</g>
	<g id="POLYLINE_1056_">
		
			<line fill="none" stroke="#F368E0" stroke-width="2.5" stroke-linecap="round" stroke-linejoin="round" stroke-miterlimit="10" x1="553.064" y1="482.214" x2="533.547" y2="488.556"/>
	</g>
	<g id="POLYLINE_1055_">
		
			<line fill="none" stroke="#F368E0" stroke-width="2.5" stroke-linecap="round" stroke-linejoin="round" stroke-miterlimit="10" x1="537.596" y1="501.018" x2="557.113" y2="494.676"/>
	</g>
	<g id="POLYLINE_1054_">
		
			<line fill="none" stroke="#F368E0" stroke-width="2.5" stroke-linecap="round" stroke-linejoin="round" stroke-miterlimit="10" x1="572.063" y1="494.676" x2="591.581" y2="501.018"/>
	</g>
	<g id="POLYLINE_1053_">
		
			<line fill="none" stroke="#F368E0" stroke-width="2.5" stroke-linecap="round" stroke-linejoin="round" stroke-miterlimit="10" x1="593.283" y1="497.622" x2="574.769" y2="491.607"/>
	</g>
	<g id="POLYLINE_1052_">
		
			<line fill="none" stroke="#F368E0" stroke-width="2.5" stroke-linecap="round" stroke-linejoin="round" stroke-miterlimit="10" x1="576.497" y1="486.289" x2="595.011" y2="492.304"/>
	</g>
	<g id="POLYLINE_1051_">
		
			<line fill="none" stroke="#F368E0" stroke-width="2.5" stroke-linecap="round" stroke-linejoin="round" stroke-miterlimit="10" x1="595.63" y1="488.556" x2="576.112" y2="482.214"/>
	</g>
	<g id="POLYLINE_1050_">
		
			<line fill="none" stroke="#F368E0" stroke-width="2.5" stroke-linecap="round" stroke-linejoin="round" stroke-miterlimit="10" x1="572.063" y1="494.676" x2="591.581" y2="501.018"/>
	</g>
	<g id="POLYLINE_1049_">
		
			<line fill="none" stroke="#F368E0" stroke-width="2.5" stroke-linecap="round" stroke-linejoin="round" stroke-miterlimit="10" x1="595.63" y1="488.556" x2="576.112" y2="482.214"/>
	</g>
	<g id="POLYLINE_1048_">
		
			<line fill="none" stroke="#F368E0" stroke-width="2.5" stroke-linecap="round" stroke-linejoin="round" stroke-miterlimit="10" x1="575.76" y1="481.129" x2="587.822" y2="464.526"/>
	</g>
	<g id="POLYLINE_1047_">
		
			<line fill="none" stroke="#F368E0" stroke-width="2.5" stroke-linecap="round" stroke-linejoin="round" stroke-miterlimit="10" x1="585.119" y1="461.858" x2="573.676" y2="477.607"/>
	</g>
	<g id="POLYLINE_1046_">
		
			<line fill="none" stroke="#F368E0" stroke-width="2.5" stroke-linecap="round" stroke-linejoin="round" stroke-miterlimit="10" x1="569.153" y1="474.32" x2="580.595" y2="458.571"/>
	</g>
	<g id="POLYLINE_1045_">
		
			<line fill="none" stroke="#F368E0" stroke-width="2.5" stroke-linecap="round" stroke-linejoin="round" stroke-miterlimit="10" x1="577.221" y1="456.824" x2="565.159" y2="473.427"/>
	</g>
	<g id="POLYLINE_1044_">
		
			<line fill="none" stroke="#F368E0" stroke-width="2.5" stroke-linecap="round" stroke-linejoin="round" stroke-miterlimit="10" x1="575.76" y1="481.129" x2="587.822" y2="464.526"/>
	</g>
	<g id="POLYLINE_1043_">
		
			<line fill="none" stroke="#F368E0" stroke-width="2.5" stroke-linecap="round" stroke-linejoin="round" stroke-miterlimit="10" x1="577.221" y1="456.824" x2="565.159" y2="473.427"/>
	</g>
	<g id="POLYLINE_1042_">
		
			<path fill="none" stroke="#F368E0" stroke-width="2.5" stroke-linecap="round" stroke-linejoin="round" stroke-miterlimit="10" d="
			M585.112,489.088c-0.343,1.843-0.922,3.625-1.728,5.318"/>
	</g>
	<g id="POLYLINE_1041_">
		
			<path fill="none" stroke="#F368E0" stroke-width="2.5" stroke-linecap="round" stroke-linejoin="round" stroke-miterlimit="10" d="
			M581.398,497.709c-2,2.689-4.599,4.891-7.61,6.371c-0.857,0.421-1.743,0.777-2.648,1.083"/>
	</g>
	<g id="POLYLINE_1040_">
		
			<path fill="none" stroke="#F368E0" stroke-width="2.5" stroke-linecap="round" stroke-linejoin="round" stroke-miterlimit="10" d="
			M567.384,506.03c-1.859,0.244-3.733,0.244-5.592,0"/>
	</g>
	<g id="POLYLINE_1039_">
		
			<path fill="none" stroke="#F368E0" stroke-width="2.5" stroke-linecap="round" stroke-linejoin="round" stroke-miterlimit="10" d="
			M558.037,505.163c-3.176-1.071-6.072-2.862-8.411-5.269c-0.666-0.685-1.278-1.418-1.848-2.184"/>
	</g>
	<g id="POLYLINE_1038_">
		
			<path fill="none" stroke="#F368E0" stroke-width="2.5" stroke-linecap="round" stroke-linejoin="round" stroke-miterlimit="10" d="
			M545.793,494.406c-0.806-1.693-1.385-3.475-1.728-5.318"/>
	</g>
	<g id="POLYLINE_1037_">
		
			<path fill="none" stroke="#F368E0" stroke-width="2.5" stroke-linecap="round" stroke-linejoin="round" stroke-miterlimit="10" d="
			M543.729,485.248c0.038-3.351,0.846-6.66,2.412-9.627c0.446-0.845,0.954-1.653,1.506-2.432"/>
	</g>
	<g id="POLYLINE_1036_">
		
			<path fill="none" stroke="#F368E0" stroke-width="2.5" stroke-linecap="round" stroke-linejoin="round" stroke-miterlimit="10" d="
			M550.176,470.279c1.361-1.29,2.877-2.391,4.524-3.287"/>
	</g>
	<g id="POLYLINE_1035_">
		
			<path fill="none" stroke="#F368E0" stroke-width="2.5" stroke-linecap="round" stroke-linejoin="round" stroke-miterlimit="10" d="
			M558.248,465.486c3.199-1,6.595-1.254,9.901-0.681c0.941,0.163,1.867,0.396,2.779,0.681"/>
	</g>
	<g id="POLYLINE_1034_">
		
			<path fill="none" stroke="#F368E0" stroke-width="2.5" stroke-linecap="round" stroke-linejoin="round" stroke-miterlimit="10" d="
			M574.477,466.992c1.647,0.895,3.163,1.997,4.524,3.287"/>
	</g>
	<g id="POLYLINE_1033_">
		
			<path fill="none" stroke="#F368E0" stroke-width="2.5" stroke-linecap="round" stroke-linejoin="round" stroke-miterlimit="10" d="
			M581.529,473.188c1.94,2.733,3.23,5.885,3.707,9.207c0.136,0.946,0.2,1.898,0.211,2.853"/>
	</g>
	<g id="POLYLINE_1032_">
		
			<line fill="none" stroke="#F368E0" stroke-width="2.5" stroke-linecap="round" stroke-linejoin="round" stroke-miterlimit="10" x1="515.092" y1="491.061" x2="504.514" y2="491.061"/>
	</g>
	<g id="POLYLINE_1031_">
		
			<line fill="none" stroke="#F368E0" stroke-width="2.5" stroke-linecap="round" stroke-linejoin="round" stroke-miterlimit="10" x1="613.439" y1="495.154" x2="624.662" y2="495.154"/>
	</g>
	<g id="POLYLINE_1030_">
		
			<path fill="none" stroke="#F368E0" stroke-width="2.5" stroke-linecap="round" stroke-linejoin="round" stroke-miterlimit="10" d="
			M663.666,422.393c-0.001-2.496-0.945-4.83-2.496-6.763c-1.375-1.714-2.886-3.317-4.47-4.839c-1.281-1.23-2.591-2.482-4.149-3.358
			c-0.772-0.434-1.659-0.812-2.563-0.761"/>
	</g>
	<g id="POLYLINE_1029_">
		
			<path fill="none" stroke="#F368E0" stroke-width="2.5" stroke-linecap="round" stroke-linejoin="round" stroke-miterlimit="10" d="
			M506.826,386.478c2.252-0.002,5.668-0.749,4.816-3.747c-0.438-1.541-1.627-2.845-2.761-3.92c-2.144-2.032-4.261-4.094-6.385-6.148
			c-3.77-3.646-7.658-7.183-11.595-10.648c-4.001-3.522-8.088-6.955-12.298-10.225c-4.308-3.346-8.744-6.527-13.356-9.443
			c-4.562-2.884-9.311-5.464-14.223-7.703c-4.861-2.216-9.87-4.124-14.894-5.934c-5.123-1.845-10.298-3.546-15.534-5.043
			c-5.24-1.498-10.534-2.809-15.878-3.877c-5.41-1.081-10.864-1.907-16.344-2.535c-5.313-0.609-10.65-1.015-15.99-1.276
			c-5.616-0.274-11.234-0.354-16.856-0.352c-5.256,0.002-10.524,0.155-15.771,0.459c-5.486,0.318-10.952,0.854-16.392,1.631
			c-5.284,0.754-10.534,1.79-15.723,3.034c-5.282,1.265-10.514,2.727-15.677,4.413c-5.095,1.664-10.149,3.498-15.076,5.611
			c-5.111,2.192-10.123,4.574-15.019,7.213c-4.762,2.567-9.394,5.359-13.95,8.274c-4.419,2.827-8.738,5.837-12.916,9.01
			c-4.28,3.25-8.465,6.644-12.345,10.368c-1.939,1.861-3.807,3.793-5.574,5.819c-1.614,1.852-3.304,3.784-4.454,5.97
			c-0.82,1.56-1.237,3.42,0.502,4.493c1.479,0.912,3.38,1.129,5.068,1.321c2.593,0.295,5.212,0.351,7.819,0.391
			c0.933,0.014,1.867,0.019,2.801,0.028c2.669,0.027,5.339,0.054,8.008,0.081c4.143,0.042,8.285,0.084,12.428,0.126
			c5.399,0.055,10.798,0.109,16.196,0.164c6.469,0.066,12.937,0.131,19.406,0.197c7.229,0.073,14.458,0.146,21.687,0.22
			c7.823,0.079,15.645,0.158,23.468,0.238c8.164,0.083,16.328,0.165,24.492,0.248c8.249,0.084,16.499,0.167,24.748,0.251
			c8.156,0.083,16.311,0.165,24.467,0.248c7.806,0.079,15.611,0.158,23.417,0.237c7.204,0.073,14.407,0.146,21.611,0.219
			c6.416,0.065,12.832,0.13,19.248,0.195c5.375,0.054,10.749,0.109,16.124,0.163c4.092,0.041,8.184,0.083,12.275,0.124
			c2.61,0.026,5.219,0.053,7.829,0.079C505.093,386.461,505.96,386.47,506.826,386.478z"/>
	</g>
	<g id="POLYLINE_1028_">
		
			<path fill="none" stroke="#F368E0" stroke-width="2.5" stroke-linecap="round" stroke-linejoin="round" stroke-miterlimit="10" d="
			M521.058,376.252c-4.808-4.442-9.663-8.835-14.679-13.044c-5.185-4.351-10.467-8.582-15.91-12.607
			c-5.245-3.879-10.627-7.576-16.154-11.042c-5.541-3.475-11.228-6.721-17.066-9.673c-5.904-2.986-11.954-5.662-18.116-8.069
			c-6.027-2.355-12.19-4.382-18.437-6.069c-6.246-1.687-12.586-3.05-18.975-4.068c-6.761-1.078-13.555-1.846-20.371-2.483
			c-6.316-0.59-12.664-1.009-19.005-1.198c-6.682-0.199-13.364-0.252-20.046-0.032c-6.552,0.216-13.106,0.593-19.63,1.246
			c-6.666,0.667-13.312,1.483-19.915,2.626c-6.533,1.131-13.01,2.533-19.425,4.208c-6.255,1.634-12.441,3.557-18.527,5.737
			c-6.277,2.248-12.46,4.762-18.529,7.523c-5.896,2.682-11.704,5.58-17.374,8.711c-5.79,3.197-11.494,6.553-17.032,10.171
			c-5.516,3.604-10.928,7.367-16.157,11.377c-5.386,4.131-10.573,8.491-15.61,13.04c-4.758,4.297-9.272,8.876-13.584,13.618
			c-2.03,2.233-3.986,4.529-5.91,6.854"/>
	</g>
	<g id="POLYLINE_1027_">
		
			<path fill="none" stroke="#F368E0" stroke-width="2.5" stroke-linecap="round" stroke-linejoin="round" stroke-miterlimit="10" d="
			M521.058,376.252c5.019,0.027,10.035,0.078,15.053,0.163c4.733,0.08,9.462,0.289,14.191,0.488
			c4.403,0.185,8.82,0.457,13.212,0.829c5.073,0.43,10.131,0.935,15.187,1.537c4.562,0.543,9.105,1.27,13.625,2.088
			c4.518,0.818,9.015,1.804,13.455,2.978c4.523,1.196,9.002,2.557,13.385,4.196c4.267,1.596,8.438,3.453,12.44,5.633
			c4.11,2.24,8.012,4.819,11.825,7.528c3.746,2.661,7.393,5.498,10.762,8.627c3.208,2.981,6.105,6.261,8.357,10.031
			c1.157,1.936,2.104,3.971,3.03,6.025c0.694,1.539,1.336,3.198,2.431,4.505c1.046,1.249,2.516,2.081,3.821,3.022
			c1.622,1.17,3.091,2.565,4.431,4.048c1.335,1.478,2.55,3.027,4.262,4.09c1.267,0.787,2.55,1.498,3.549,2.626
			c2.629,2.971,3.366,7.206,3.653,11.03c0.315,4.206,0.298,8.709-0.646,12.838c-0.439,1.917-1.437,3.573-2.097,5.408
			c-0.774,2.151-1.235,4.41-1.849,6.61c-0.532,1.906-1.452,3.741-1.784,5.694c-0.214,1.259-0.2,2.595-0.774,3.765
			c-1.156,2.357-4.233,3.505-6.542,4.266c-4.09,1.349-8.504,1.709-12.78,1.918c-4.27,0.209-8.546,0.286-12.819,0.405
			c-6.386,0.177-12.771,0.354-19.157,0.53c-1.427,0.039-3.508,0.516-4.354-1.027c-0.488-0.89-0.26-2.159-0.26-3.108
			c0-2.944,0.004-5.888,0-8.832c-0.006-4.416-0.456-8.815-1.406-13.129c-0.922-4.188-2.295-8.273-4.084-12.17
			c-1.883-4.1-4.231-7.986-6.984-11.561c-2.793-3.627-6.002-6.935-9.546-9.834c-3.463-2.833-7.24-5.279-11.244-7.277
			c-3.938-1.964-8.094-3.497-12.367-4.553c-4.441-1.097-9.005-1.691-13.58-1.755c-4.608-0.064-9.223,0.398-13.725,1.387
			c-4.187,0.92-8.273,2.285-12.171,4.071c-4.115,1.886-8.015,4.239-11.603,6.999c-3.633,2.795-6.945,6.009-9.847,9.556
			c-2.833,3.463-5.28,7.24-7.276,11.244c-1.961,3.934-3.493,8.084-4.549,12.352c-1.095,4.424-1.69,8.972-1.758,13.529
			c-0.036,2.403-0.008,4.808-0.008,7.212c0,1.508,0,3.015,0,4.523c0,0.45,0.035,0.919-0.047,1.365
			c-0.155,0.835-0.69,1.571-1.437,1.976c-0.837,0.453-1.801,0.342-2.718,0.342c-5.121,0-10.241,0-15.362,0"/>
	</g>
	<g id="POLYLINE_1026_">
		
			<path fill="none" stroke="#F368E0" stroke-width="2.5" stroke-linecap="round" stroke-linejoin="round" stroke-miterlimit="10" d="
			M551.581,373.504c-4.943-0.002-9.886-0.005-14.829-0.007c-3.132-0.001-6.265-0.003-9.397-0.004
			c-1.413-0.001-2.843,0.052-4.254-0.03c-3.27-0.191-5.542-3.142-7.825-5.158c-3.776-3.336-7.596-6.615-11.484-9.82
			c-3.591-2.96-7.267-5.822-10.995-8.607c-3.723-2.781-7.502-5.496-11.374-8.066c-3.987-2.646-8.019-5.221-12.156-7.626
			c-4.156-2.417-8.386-4.695-12.689-6.84c-1.866-0.93-3.858-1.7-5.673-2.72c-0.309-0.174-0.675-0.416-0.7-0.806
			c-0.024-0.387,0.316-0.742,0.555-0.996c1.262-1.341,3.023-2.221,4.63-3.068c1.022-0.539,2.06-1.045,3.097-1.557"/>
	</g>
	<g id="POLYLINE_1025_">
		
			<path fill="none" stroke="#F368E0" stroke-width="2.5" stroke-linecap="round" stroke-linejoin="round" stroke-miterlimit="10" d="
			M656.567,485.729c4.372,0,8.744,0,13.116,0c1.528,0,3.433,0.22,3.779-1.73c0.335-1.887,0.489-3.825,0.732-5.726
			c0.273-2.136,0.57-4.27,0.82-6.409c0.15-1.285,0.131-2.779-0.74-3.83c-0.823-0.994-2.146-1.236-3.369-1.25
			c-4.074-0.047-8.159-0.05-12.233,0c-1.72,0.021-3.313,0.6-4.583,1.773c-2.005,1.853-3.141,4.722-3.84,7.304
			c-0.627,2.315-1.042,5.394-0.031,7.678c0.698,1.577,2.291,1.961,3.876,2.103C654.916,485.715,655.742,485.724,656.567,485.729z"/>
	</g>
	<g id="POLYLINE_1024_">
		
			<path fill="none" stroke="#F368E0" stroke-width="2.5" stroke-linecap="round" stroke-linejoin="round" stroke-miterlimit="10" d="
			M653.117,475.792c0.315-1.991,1.434-4.23,3.434-4.987c1.986-0.751,3.754,0.584,4.487,2.377c0.909,2.221,0.558,4.975-0.762,6.959
			c-1.065,1.601-3.069,2.813-4.952,1.757c-1.63-0.915-2.278-2.961-2.305-4.724C653.013,476.711,653.047,476.249,653.117,475.792z"/>
	</g>
	<g id="POLYLINE_1023_">
		
			<path fill="none" stroke="#F368E0" stroke-width="2.5" stroke-linecap="round" stroke-linejoin="round" stroke-miterlimit="10" d="
			M660.098,466.783c3.61,1.931,5.731,5.965,5.267,10.034c-0.462,4.048-3.427,7.502-7.358,8.571c-2.193,0.597-4.552,0.427-6.64-0.47"
			/>
	</g>
	<g id="POLYLINE_1022_">
		
			<path fill="none" stroke="#F368E0" stroke-width="2.5" stroke-linecap="round" stroke-linejoin="round" stroke-miterlimit="10" d="
			M203.203,473.188c1.939,2.733,3.23,5.885,3.707,9.207c0.136,0.946,0.2,1.898,0.211,2.853"/>
	</g>
	<g id="POLYLINE_1021_">
		
			<path fill="none" stroke="#F368E0" stroke-width="2.5" stroke-linecap="round" stroke-linejoin="round" stroke-miterlimit="10" d="
			M196.15,466.992c1.647,0.895,3.163,1.997,4.524,3.287"/>
	</g>
	<g id="POLYLINE_1020_">
		
			<path fill="none" stroke="#F368E0" stroke-width="2.5" stroke-linecap="round" stroke-linejoin="round" stroke-miterlimit="10" d="
			M179.922,465.486c3.199-1,6.595-1.254,9.901-0.681c0.941,0.163,1.867,0.396,2.779,0.681"/>
	</g>
	<g id="POLYLINE_1019_">
		
			<path fill="none" stroke="#F368E0" stroke-width="2.5" stroke-linecap="round" stroke-linejoin="round" stroke-miterlimit="10" d="
			M171.85,470.279c1.361-1.29,2.877-2.391,4.524-3.287"/>
	</g>
	<g id="POLYLINE_1018_">
		
			<path fill="none" stroke="#F368E0" stroke-width="2.5" stroke-linecap="round" stroke-linejoin="round" stroke-miterlimit="10" d="
			M165.403,485.248c0.038-3.351,0.846-6.66,2.412-9.627c0.446-0.845,0.954-1.653,1.506-2.432"/>
	</g>
	<g id="POLYLINE_1017_">
		
			<path fill="none" stroke="#F368E0" stroke-width="2.5" stroke-linecap="round" stroke-linejoin="round" stroke-miterlimit="10" d="
			M167.466,494.406c-0.806-1.693-1.385-3.475-1.728-5.318"/>
	</g>
	<g id="POLYLINE_1016_">
		
			<path fill="none" stroke="#F368E0" stroke-width="2.5" stroke-linecap="round" stroke-linejoin="round" stroke-miterlimit="10" d="
			M179.71,505.163c-3.176-1.071-6.072-2.862-8.41-5.269c-0.666-0.685-1.278-1.418-1.848-2.184"/>
	</g>
	<g id="POLYLINE_1015_">
		
			<path fill="none" stroke="#F368E0" stroke-width="2.5" stroke-linecap="round" stroke-linejoin="round" stroke-miterlimit="10" d="
			M189.058,506.03c-1.859,0.244-3.733,0.244-5.592,0"/>
	</g>
	<g id="POLYLINE_1014_">
		
			<path fill="none" stroke="#F368E0" stroke-width="2.5" stroke-linecap="round" stroke-linejoin="round" stroke-miterlimit="10" d="
			M203.072,497.709c-2,2.689-4.599,4.891-7.61,6.371c-0.857,0.421-1.743,0.777-2.648,1.083"/>
	</g>
	<g id="POLYLINE_1013_">
		
			<path fill="none" stroke="#F368E0" stroke-width="2.5" stroke-linecap="round" stroke-linejoin="round" stroke-miterlimit="10" d="
			M206.785,489.088c-0.343,1.843-0.922,3.625-1.728,5.318"/>
	</g>
	<g id="POLYLINE_1012_">
		
			<line fill="none" stroke="#F368E0" stroke-width="2.5" stroke-linecap="round" stroke-linejoin="round" stroke-miterlimit="10" x1="198.895" y1="456.824" x2="186.833" y2="473.427"/>
	</g>
	<g id="POLYLINE_1011_">
		
			<line fill="none" stroke="#F368E0" stroke-width="2.5" stroke-linecap="round" stroke-linejoin="round" stroke-miterlimit="10" x1="197.433" y1="481.129" x2="209.496" y2="464.526"/>
	</g>
	<g id="POLYLINE_1010_">
		
			<line fill="none" stroke="#F368E0" stroke-width="2.5" stroke-linecap="round" stroke-linejoin="round" stroke-miterlimit="10" x1="198.895" y1="456.824" x2="186.833" y2="473.427"/>
	</g>
	<g id="POLYLINE_1009_">
		
			<line fill="none" stroke="#F368E0" stroke-width="2.5" stroke-linecap="round" stroke-linejoin="round" stroke-miterlimit="10" x1="190.826" y1="474.32" x2="202.269" y2="458.571"/>
	</g>
	<g id="POLYLINE_1008_">
		
			<line fill="none" stroke="#F368E0" stroke-width="2.5" stroke-linecap="round" stroke-linejoin="round" stroke-miterlimit="10" x1="206.792" y1="461.858" x2="195.35" y2="477.607"/>
	</g>
	<g id="POLYLINE_1007_">
		
			<line fill="none" stroke="#F368E0" stroke-width="2.5" stroke-linecap="round" stroke-linejoin="round" stroke-miterlimit="10" x1="197.433" y1="481.129" x2="209.496" y2="464.526"/>
	</g>
	<g id="POLYLINE_1006_">
		
			<line fill="none" stroke="#F368E0" stroke-width="2.5" stroke-linecap="round" stroke-linejoin="round" stroke-miterlimit="10" x1="217.304" y1="488.556" x2="197.786" y2="482.214"/>
	</g>
	<g id="POLYLINE_1005_">
		
			<line fill="none" stroke="#F368E0" stroke-width="2.5" stroke-linecap="round" stroke-linejoin="round" stroke-miterlimit="10" x1="193.737" y1="494.676" x2="213.254" y2="501.018"/>
	</g>
	<g id="POLYLINE_1004_">
		
			<line fill="none" stroke="#F368E0" stroke-width="2.5" stroke-linecap="round" stroke-linejoin="round" stroke-miterlimit="10" x1="217.304" y1="488.556" x2="197.786" y2="482.214"/>
	</g>
	<g id="POLYLINE_1003_">
		
			<line fill="none" stroke="#F368E0" stroke-width="2.5" stroke-linecap="round" stroke-linejoin="round" stroke-miterlimit="10" x1="198.171" y1="486.289" x2="216.685" y2="492.304"/>
	</g>
	<g id="POLYLINE_1002_">
		
			<line fill="none" stroke="#F368E0" stroke-width="2.5" stroke-linecap="round" stroke-linejoin="round" stroke-miterlimit="10" x1="214.957" y1="497.622" x2="196.443" y2="491.607"/>
	</g>
	<g id="POLYLINE_1001_">
		
			<line fill="none" stroke="#F368E0" stroke-width="2.5" stroke-linecap="round" stroke-linejoin="round" stroke-miterlimit="10" x1="193.737" y1="494.676" x2="213.254" y2="501.018"/>
	</g>
	<g id="POLYLINE_1000_">
		
			<line fill="none" stroke="#F368E0" stroke-width="2.5" stroke-linecap="round" stroke-linejoin="round" stroke-miterlimit="10" x1="159.269" y1="501.018" x2="178.787" y2="494.676"/>
	</g>
	<g id="POLYLINE_999_">
		
			<line fill="none" stroke="#F368E0" stroke-width="2.5" stroke-linecap="round" stroke-linejoin="round" stroke-miterlimit="10" x1="174.738" y1="482.214" x2="155.22" y2="488.556"/>
	</g>
	<g id="POLYLINE_998_">
		
			<line fill="none" stroke="#F368E0" stroke-width="2.5" stroke-linecap="round" stroke-linejoin="round" stroke-miterlimit="10" x1="159.269" y1="501.018" x2="178.787" y2="494.676"/>
	</g>
	<g id="POLYLINE_997_">
		
			<line fill="none" stroke="#F368E0" stroke-width="2.5" stroke-linecap="round" stroke-linejoin="round" stroke-miterlimit="10" x1="176.081" y1="491.607" x2="157.567" y2="497.622"/>
	</g>
	<g id="POLYLINE_996_">
		
			<line fill="none" stroke="#F368E0" stroke-width="2.5" stroke-linecap="round" stroke-linejoin="round" stroke-miterlimit="10" x1="155.839" y1="492.304" x2="174.353" y2="486.289"/>
	</g>
	<g id="POLYLINE_995_">
		
			<line fill="none" stroke="#F368E0" stroke-width="2.5" stroke-linecap="round" stroke-linejoin="round" stroke-miterlimit="10" x1="174.738" y1="482.214" x2="155.22" y2="488.556"/>
	</g>
	<g id="POLYLINE_994_">
		
			<line fill="none" stroke="#F368E0" stroke-width="2.5" stroke-linecap="round" stroke-linejoin="round" stroke-miterlimit="10" x1="163.028" y1="464.526" x2="175.091" y2="481.129"/>
	</g>
	<g id="POLYLINE_993_">
		
			<line fill="none" stroke="#F368E0" stroke-width="2.5" stroke-linecap="round" stroke-linejoin="round" stroke-miterlimit="10" x1="185.691" y1="473.427" x2="173.629" y2="456.824"/>
	</g>
	<g id="POLYLINE_992_">
		
			<line fill="none" stroke="#F368E0" stroke-width="2.5" stroke-linecap="round" stroke-linejoin="round" stroke-miterlimit="10" x1="163.028" y1="464.526" x2="175.091" y2="481.129"/>
	</g>
	<g id="POLYLINE_991_">
		
			<line fill="none" stroke="#F368E0" stroke-width="2.5" stroke-linecap="round" stroke-linejoin="round" stroke-miterlimit="10" x1="177.174" y1="477.607" x2="165.732" y2="461.858"/>
	</g>
	<g id="POLYLINE_990_">
		
			<line fill="none" stroke="#F368E0" stroke-width="2.5" stroke-linecap="round" stroke-linejoin="round" stroke-miterlimit="10" x1="170.255" y1="458.571" x2="181.697" y2="474.32"/>
	</g>
	<g id="POLYLINE_989_">
		
			<line fill="none" stroke="#F368E0" stroke-width="2.5" stroke-linecap="round" stroke-linejoin="round" stroke-miterlimit="10" x1="185.691" y1="473.427" x2="173.629" y2="456.824"/>
	</g>
	<g id="POLYLINE_988_">
		
			<line fill="none" stroke="#F368E0" stroke-width="2.5" stroke-linecap="round" stroke-linejoin="round" stroke-miterlimit="10" x1="179.71" y1="495.347" x2="179.71" y2="515.869"/>
	</g>
	<g id="POLYLINE_987_">
		
			<line fill="none" stroke="#F368E0" stroke-width="2.5" stroke-linecap="round" stroke-linejoin="round" stroke-miterlimit="10" x1="183.466" y1="516.439" x2="183.466" y2="496.972"/>
	</g>
	<g id="POLYLINE_986_">
		
			<line fill="none" stroke="#F368E0" stroke-width="2.5" stroke-linecap="round" stroke-linejoin="round" stroke-miterlimit="10" x1="189.058" y1="496.972" x2="189.058" y2="516.439"/>
	</g>
	<g id="POLYLINE_985_">
		
			<line fill="none" stroke="#F368E0" stroke-width="2.5" stroke-linecap="round" stroke-linejoin="round" stroke-miterlimit="10" x1="192.814" y1="515.869" x2="192.814" y2="495.347"/>
	</g>
	<g id="POLYLINE_679_">
		
			<line fill="none" stroke="#F368E0" stroke-width="2.5" stroke-linecap="round" stroke-linejoin="round" stroke-miterlimit="10" x1="179.71" y1="495.347" x2="179.71" y2="515.869"/>
	</g>
	<g id="POLYLINE_678_">
		
			<line fill="none" stroke="#F368E0" stroke-width="2.5" stroke-linecap="round" stroke-linejoin="round" stroke-miterlimit="10" x1="192.814" y1="515.869" x2="192.814" y2="495.347"/>
	</g>
	<g id="POLYLINE_673_">
		
			<path fill="none" stroke="#F368E0" stroke-width="2.5" stroke-linecap="round" stroke-linejoin="round" stroke-miterlimit="10" d="
			M155.056,485.359c0.028-3.22,0.493-6.413,1.477-9.483c0.963-3.007,2.376-5.86,4.189-8.446c1.845-2.632,4.104-4.977,6.664-6.92
			c2.536-1.924,5.362-3.457,8.359-4.53c2.99-1.07,6.141-1.681,9.315-1.803c3.219-0.124,6.459,0.252,9.562,1.118
			c3.042,0.849,5.944,2.156,8.598,3.869c2.698,1.742,5.122,3.91,7.159,6.392c2.024,2.465,3.67,5.243,4.852,8.205
			c1.179,2.953,1.905,6.076,2.147,9.247c0.245,3.204-0.013,6.451-0.759,9.577c-0.739,3.096-1.95,6.074-3.586,8.806
			c-1.631,2.724-3.679,5.197-6.054,7.305c-2.409,2.138-5.152,3.904-8.099,5.204c-2.89,1.275-5.962,2.105-9.1,2.466
			c-3.19,0.367-6.44,0.228-9.589-0.396c-3.128-0.621-6.163-1.723-8.957-3.262c-2.785-1.534-5.328-3.487-7.527-5.784
			c-2.223-2.321-4.083-4.994-5.491-7.883c-1.395-2.861-2.348-5.933-2.817-9.081C155.171,488.433,155.07,486.9,155.056,485.359z"/>
	</g>
	<g id="POLYLINE_672_">
		
			<path fill="none" stroke="#F368E0" stroke-width="2.5" stroke-linecap="round" stroke-linejoin="round" stroke-miterlimit="10" d="
			M174.317,485.359c0.006-2.453,0.767-4.872,2.18-6.879c1.41-2.003,3.434-3.541,5.74-4.367c2.305-0.826,4.847-0.92,7.207-0.267
			c2.362,0.653,4.495,2.039,6.05,3.933c1.549,1.887,2.492,4.239,2.679,6.673c0.188,2.451-0.4,4.936-1.663,7.044
			c-1.258,2.101-3.162,3.787-5.4,4.78c-2.231,0.99-4.75,1.276-7.145,0.805c-2.405-0.473-4.635-1.692-6.331-3.462
			c-1.689-1.763-2.808-4.038-3.178-6.45C174.363,486.57,174.318,485.965,174.317,485.359z"/>
	</g>
	<g id="POLYLINE_671_">
		
			<path fill="none" stroke="#F368E0" stroke-width="2.5" stroke-linecap="round" stroke-linejoin="round" stroke-miterlimit="10" d="
			M152.511,485.359c0.03-3.482,0.534-6.936,1.597-10.256c1.042-3.253,2.57-6.338,4.531-9.135c1.996-2.847,4.439-5.382,7.208-7.484
			c2.742-2.082,5.8-3.738,9.041-4.899c3.234-1.158,6.642-1.817,10.074-1.95c3.481-0.135,6.986,0.274,10.342,1.209
			c3.29,0.917,6.429,2.332,9.299,4.185c2.918,1.884,5.539,4.229,7.743,6.913c2.189,2.666,3.969,5.671,5.248,8.874
			c1.275,3.194,2.061,6.571,2.322,10.001c0.264,3.467-0.015,6.976-0.821,10.358c-0.798,3.349-2.11,6.57-3.878,9.524
			c-1.765,2.947-3.98,5.619-6.548,7.901c-2.604,2.314-5.573,4.222-8.76,5.628c-3.125,1.379-6.449,2.278-9.842,2.667
			c-3.45,0.395-6.965,0.247-10.371-0.429c-3.383-0.671-6.666-1.864-9.688-3.528c-3.012-1.659-5.763-3.771-8.141-6.255
			c-2.405-2.512-4.414-5.401-5.939-8.526c-1.509-3.093-2.539-6.417-3.047-9.821C152.636,488.684,152.526,487.026,152.511,485.359z"
			/>
	</g>
	<g id="POLYLINE_313_">
		
			<path fill="none" stroke="#F368E0" stroke-width="2.5" stroke-linecap="round" stroke-linejoin="round" stroke-miterlimit="10" d="
			M136.438,485.359c0.045-5.144,0.794-10.234,2.358-15.141c1.532-4.808,3.801-9.375,6.701-13.504
			c2.952-4.203,6.56-7.949,10.655-11.051c4.063-3.078,8.588-5.52,13.387-7.236c4.749-1.698,9.763-2.66,14.802-2.855
			c5.154-0.199,10.335,0.41,15.303,1.794c4.864,1.355,9.516,3.456,13.75,6.206c4.282,2.782,8.132,6.221,11.373,10.168
			c3.255,3.964,5.889,8.432,7.786,13.198c1.859,4.669,3.007,9.62,3.387,14.632c0.39,5.142-0.017,10.344-1.217,15.36
			c-1.18,4.931-3.112,9.675-5.717,14.026s-5.875,8.293-9.665,11.662c-3.855,3.426-8.249,6.24-12.965,8.325
			c-4.597,2.031-9.504,3.356-14.497,3.922c-5.096,0.578-10.279,0.365-15.31-0.633c-5.009-0.994-9.859-2.764-14.333-5.226
			c-4.423-2.434-8.473-5.543-11.963-9.191c-3.565-3.728-6.548-8.005-8.807-12.643c-2.208-4.535-3.725-9.408-4.472-14.397
			C136.903,492.162,136.231,485.359,136.438,485.359z"/>
	</g>
	<g id="POLYLINE_312_">
		
			<path fill="none" stroke="#F368E0" stroke-width="2.5" stroke-linecap="round" stroke-linejoin="round" stroke-miterlimit="10" d="
			M160.607,393.077c5.316-0.861,10.663-1.409,16.048-1.549c5.255-0.137,10.525,0.115,15.742,0.762
			c5.338,0.662,10.614,1.753,15.772,3.279c5.124,1.516,10.128,3.49,14.886,5.924c4.812,2.462,9.387,5.378,13.606,8.76
			c4.101,3.286,7.913,6.97,11.375,10.922c3.599,4.109,6.861,8.502,9.721,13.158c2.887,4.7,5.352,9.646,7.407,14.765
			c2.023,5.04,3.612,10.271,4.734,15.585c1.115,5.281,1.805,10.644,2.026,16.038c0.051,1.246,0.069,2.493,0.078,3.74"/>
	</g>
	<g id="POLYLINE_311_">
		
			<path fill="none" stroke="#F368E0" stroke-width="2.5" stroke-linecap="round" stroke-linejoin="round" stroke-miterlimit="10" d="
			M160.607,393.077c-3.446,0.705-6.881,1.458-10.285,2.346c-3.385,0.882-6.747,1.85-10.071,2.941
			c-3.343,1.098-6.654,2.305-9.909,3.641c-3.26,1.338-6.475,2.779-9.637,4.335c-3.22,1.584-6.377,3.289-9.495,5.066
			c-0.366,0.209-0.733,0.418-1.099,0.626"/>
	</g>
	<g id="POLYLINE_310_">
		
			<line fill="none" stroke="#F368E0" stroke-width="2.5" stroke-linecap="round" stroke-linejoin="round" stroke-miterlimit="10" x1="246.125" y1="494.846" x2="235.174" y2="494.846"/>
	</g>
	<g id="POLYLINE_309_">
		
			<path fill="none" stroke="#F368E0" stroke-width="2.5" stroke-linecap="round" stroke-linejoin="round" stroke-miterlimit="10" d="
			M126.309,490.2c-0.007,1.8-0.174,3.815-1.253,5.331c-0.798,1.122-2.031,1.696-3.357,1.932c-1.22,0.216-2.474,0.196-3.709,0.195
			c-1.612-0.001-3.224-0.003-4.836-0.043c-3.081-0.078-6.163-0.313-9.185-0.939c-6.012-1.247-11.691-3.801-17.083-6.678
			c-2.527-1.348-5.141-2.733-7.399-4.509c-1.274-1.003-2.442-2.269-2.794-3.899c-0.282-1.308,0.094-2.25,0.425-3.488
			c0.62-2.322,0.407-4.945,0.419-7.326c0.004-0.825,0.008-1.65,0.012-2.474"/>
	</g>
	<g id="POLYLINE_308_">
		
			<path fill="none" stroke="#F368E0" stroke-width="2.5" stroke-linecap="round" stroke-linejoin="round" stroke-miterlimit="10" d="
			M77.548,468.3c-1.883,0-3.375-0.958-3.54-2.943c-0.18-2.16-0.026-4.384-0.025-6.548c0.002-2.845,0.019-5.691,0.006-8.536
			c-0.01-2.148,0.058-4.366-0.218-6.501c-0.102-0.791-0.596-1.455-0.608-2.247c-0.009-0.636,0.244-1.235,0.457-1.822
			c0.341-0.941,0.7-1.888,1.178-2.771c0.476-0.878,1.075-1.57,1.941-2.073c1.983-1.149,4.248-1.728,6.296-2.745
			c1.733-0.86,3.192-2.051,4.52-3.449c1.372-1.444,2.519-3.2,4.099-4.43c0.96-0.747,2.106-1.032,3.252-1.387
			c3.959-1.226,6.866-4.654,10.077-7.097c1.651-1.256,3.554-2.249,5.072-3.667c1.528-1.427,2.633-3.305,3.919-4.941
			c2.945-3.749,6.302-7.172,9.727-10.481c3.538-3.418,7.207-6.701,10.995-9.84c3.151-2.61,6.381-5.122,9.62-7.621
			c5.403-4.17,10.806-8.339,16.209-12.509c3.377-2.606,6.749-5.217,10.179-7.754c3.965-2.932,8.017-5.752,12.12-8.488
			c4.264-2.844,8.597-5.578,12.961-8.266c4.151-2.557,8.359-5.026,12.614-7.408c4.329-2.423,8.711-4.749,13.153-6.957
			c4.345-2.16,8.755-4.212,13.242-6.06c4.685-1.929,9.416-3.735,14.218-5.355c4.813-1.624,9.682-3.061,14.579-4.407
			c4.594-1.263,9.233-2.394,13.884-3.428c5.23-1.162,10.478-2.214,15.739-3.223c4.889-0.938,9.81-1.716,14.729-2.481
			c4.714-0.733,9.455-1.347,14.195-1.887c4.983-0.568,9.978-1.028,14.982-1.372c4.835-0.332,9.68-0.568,14.525-0.664
			c4.885-0.097,9.777-0.141,14.662-0.016c5.379,0.138,10.749,0.35,16.122,0.636c4.906,0.261,9.81,0.678,14.691,1.235
			c4.844,0.552,9.672,1.277,14.461,2.194c4.943,0.947,9.824,2.137,14.677,3.464c4.575,1.251,9.113,2.717,13.574,4.327
			c4.728,1.706,9.422,3.498,14.054,5.452c4.576,1.931,9.121,3.934,13.615,6.051c4.711,2.219,9.38,4.523,14.019,6.888
			c4.529,2.309,9.003,4.721,13.455,7.176c4.398,2.425,8.719,4.986,13.029,7.563c4.067,2.432,8.077,4.968,12.051,7.549
			c4.418,2.87,8.782,5.815,13.13,8.79c3.888,2.661,7.723,5.41,11.53,8.185c3.971,2.895,7.897,5.848,11.823,8.803"/>
	</g>
	<g id="POLYLINE_285_">
		
			<line fill="none" stroke="#F368E0" stroke-width="2.5" stroke-linecap="round" stroke-linejoin="round" stroke-miterlimit="10" x1="77.548" y1="468.3" x2="96.805" y2="468.3"/>
	</g>
	<g id="POLYLINE_284_">
		
			<path fill="none" stroke="#F368E0" stroke-width="2.5" stroke-linecap="round" stroke-linejoin="round" stroke-miterlimit="10" d="
			M76.6,480.992c4.203,0,8.406,0,12.609,0c2.479,0,5.106,0.061,7.356-1.143c1.525-0.815,2.521-2.182,2.988-3.829
			c0.401-1.413,0.57-2.982,0.581-4.448c0.005-0.63-0.036-1.304-0.309-1.884c-0.455-0.968-1.472-1.294-2.472-1.368
			c-0.183-0.014-0.366-0.019-0.549-0.019"/>
	</g>
	<g id="POLYLINE_283_">
		
			<path fill="none" stroke="#F368E0" stroke-width="2.5" stroke-linecap="round" stroke-linejoin="round" stroke-miterlimit="10" d="
			M108.498,421.958c1.658-2.7,4.004-4.992,6.372-7.068c2.551-2.237,5.29-4.265,8.163-6.069c2.72-1.708,5.589-3.275,8.625-4.348
			c1.642-0.58,4.213-1.517,5.93-0.613c1.537,0.809,0.757,2.829,0.145,3.991c-1.418,2.691-3.698,4.963-5.92,6.996
			c-2.479,2.269-5.165,4.314-7.973,6.158c-2.738,1.798-5.625,3.434-8.675,4.643c-1.874,0.743-4.363,1.733-6.42,1.167
			c-1.708-0.47-1.522-2.194-0.952-3.52C107.866,423.126,108.333,421.958,108.498,421.958z"/>
	</g>
	<g id="POLYLINE_282_">
		
			<path fill="none" stroke="#F368E0" stroke-width="2.5" stroke-linecap="round" stroke-linejoin="round" stroke-miterlimit="10" d="
			M263.582,322.223c-2.542-2.808-5.249-5.437-8.141-7.884"/>
	</g>
</g>
<g id="AG-OUTLINE">
	<g id="POLYLINE_19_">
		
			<path fill="none" stroke="#F368E0" stroke-width="3.25" stroke-linecap="round" stroke-linejoin="round" stroke-miterlimit="10" d="
			M441.582,322.781c3.292-2.499,6.64-5.16,10.378-6.971c0.521-0.253,0.679-0.097,1.215,0.127c0.659,0.276,1.319,0.551,1.978,0.828
			c1.025,0.431,2.045,0.876,3.066,1.318c1.792,0.775,3.579,1.572,5.353,2.387c4.043,1.856,8.063,3.762,12.048,5.74
			c3.877,1.925,7.743,3.872,11.562,5.911c3.878,2.071,7.749,4.159,11.56,6.352c4.089,2.354,8.142,4.761,12.173,7.213
			c3.442,2.094,6.852,4.257,10.219,6.471c3.772,2.48,7.529,4.979,11.243,7.545c3.711,2.563,7.392,5.165,11.046,7.809
			c3.51,2.539,6.994,5.114,10.453,7.723c0.886,0.669,1.773,1.337,2.659,2.006c-4.431-0.234-8.858-0.453-13.293-0.614
			c-4.133-0.15-8.268-0.254-12.404-0.309c-2.515-0.034-5.031-0.034-7.546-0.051c-0.56-0.004-1.12-0.008-1.68-0.011
			c-0.172-0.001-0.42,0.042-0.575-0.024c-0.428-0.182-0.906-0.837-1.243-1.148c-0.509-0.471-1.018-0.942-1.528-1.412
			c-2.994-2.756-6.034-5.468-9.127-8.112c-3.431-2.932-6.903-5.81-10.425-8.632c-3.315-2.655-6.711-5.208-10.14-7.714
			c-3.461-2.529-6.997-4.96-10.583-7.308c-3.499-2.29-7.064-4.48-10.685-6.57c-3.695-2.133-7.453-4.153-11.271-6.057
			c-3.753-1.872-7.567-3.631-11.435-5.254c-0.519-0.218-1.041-0.429-1.562-0.644C442.656,323.224,441.998,322.781,441.582,322.781z"
			/>
	</g>
	<g id="POLYLINE_18_">
		
			<path fill="none" stroke="#F368E0" stroke-width="3.25" stroke-linecap="round" stroke-linejoin="round" stroke-miterlimit="10" d="
			M136.438,485.359c0.045-5.144,0.794-10.234,2.358-15.141c1.532-4.808,3.801-9.375,6.701-13.504
			c2.952-4.203,6.56-7.949,10.655-11.051c4.063-3.078,8.588-5.52,13.387-7.236c4.749-1.698,9.763-2.66,14.802-2.855
			c5.154-0.199,10.335,0.41,15.303,1.794c4.864,1.355,9.516,3.456,13.75,6.206c4.282,2.782,8.132,6.221,11.373,10.168
			c3.255,3.964,5.889,8.432,7.786,13.198c1.859,4.669,3.007,9.62,3.387,14.632c0.39,5.142-0.017,10.344-1.217,15.36
			c-1.18,4.931-3.112,9.675-5.717,14.026s-5.875,8.293-9.665,11.662c-3.855,3.426-8.249,6.24-12.965,8.325
			c-4.597,2.031-9.504,3.356-14.497,3.922c-5.096,0.578-10.279,0.365-15.31-0.633c-5.009-0.994-9.859-2.764-14.333-5.226
			c-4.423-2.434-8.473-5.543-11.963-9.191c-3.565-3.728-6.548-8.005-8.807-12.643c-2.208-4.535-3.725-9.408-4.472-14.397
			C136.903,492.162,136.231,485.359,136.438,485.359z"/>
	</g>
	<g id="POLYLINE_17_">
		
			<path fill="none" stroke="#F368E0" stroke-width="3.25" stroke-linecap="round" stroke-linejoin="round" stroke-miterlimit="10" d="
			M514.764,485.359c0.045-5.144,0.794-10.234,2.358-15.141c1.532-4.808,3.801-9.375,6.701-13.504
			c2.952-4.203,6.56-7.949,10.655-11.051c4.063-3.078,8.588-5.52,13.387-7.236c4.749-1.698,9.763-2.66,14.802-2.855
			c5.154-0.199,10.335,0.41,15.303,1.794c4.864,1.355,9.516,3.456,13.75,6.206c4.282,2.782,8.132,6.221,11.373,10.168
			c3.255,3.964,5.889,8.432,7.786,13.198c1.859,4.669,3.007,9.62,3.387,14.632c0.39,5.142-0.017,10.344-1.217,15.36
			c-1.18,4.931-3.112,9.675-5.717,14.026c-2.605,4.35-5.875,8.293-9.665,11.662c-3.855,3.426-8.249,6.24-12.965,8.325
			c-4.597,2.031-9.504,3.356-14.497,3.922c-5.096,0.578-10.279,0.365-15.31-0.633c-5.009-0.994-9.859-2.764-14.333-5.226
			c-4.423-2.434-8.473-5.543-11.963-9.191c-3.565-3.728-6.548-8.005-8.807-12.643c-2.208-4.535-3.725-9.408-4.472-14.397
			C514.953,490.315,514.786,487.844,514.764,485.359z"/>
	</g>
	<g id="POLYLINE_16_">
		
			<path fill="none" stroke="#F368E0" stroke-width="3.25" stroke-linecap="round" stroke-linejoin="round" stroke-miterlimit="10" d="
			M137.31,494.641c0.887,4.549,2.357,8.96,4.44,13.104c2.186,4.347,5.012,8.363,8.358,11.896c3.379,3.568,7.294,6.631,11.569,9.053
			c4.091,2.318,8.505,4.058,13.081,5.142c4.859,1.151,9.888,1.571,14.871,1.232c4.797-0.326,9.542-1.348,14.047-3.029
			c4.472-1.668,8.702-3.983,12.517-6.851c3.907-2.936,7.37-6.447,10.261-10.388c2.832-3.86,5.097-8.134,6.712-12.641
			c0.767-2.141,1.387-4.334,1.854-6.559c0.031-0.147,0.057-0.677,0.156-0.756c0.049-0.039,0.255,0.008,0.315,0
			c0.583-0.073,1.223,0,1.81,0c1.904,0,3.807,0,5.711,0c1.038,0,2.076,0,3.113,0c-0.033,1.332,0.718,2.598,1.903,3.207
			c0.542,0.279,1.116,0.38,1.719,0.388c1.506,0.02,3.013,0,4.519,0c3.157,0,6.315,0,9.472,0c2.955,0,5.91,0,8.866,0
			c5.167,0,10.333,0,15.5,0c6.888,0,13.775,0,20.663,0c8.118,0,16.236,0,24.354,0c8.858,0,17.716,0,26.573,0
			c9.107,0,18.214,0,27.322,0c8.866,0,17.732,0,26.598,0c8.134,0,16.269,0,24.403,0c6.895,0,13.79,0,20.685,0
			c5.193,0,10.387,0,15.58,0c3.01,0,6.02,0,9.03,0c2.656,0,5.312,0,7.969,0c3.442,0,6.894,0.08,10.336,0
			c1.02-0.024,1.957-0.481,2.494-1.375c0.269-0.448,0.387-0.94,0.404-1.458c0.025-0.731,0-1.467,0-2.198c0-0.517,0-1.035,0-1.552
			c0-0.097-0.078-0.719,0-0.798c0.127-0.129,1.043,0,1.22,0c0.953,0,1.905,0,2.858,0c1.968,0,3.935,0,5.903,0
			c0.64,0,0.584-0.07,0.672,0.615c0.086,0.679,0.187,1.355,0.302,2.03c0.229,1.345,0.513,2.681,0.851,4.003
			c0.688,2.687,1.601,5.314,2.724,7.85c2.361,5.333,5.673,10.24,9.726,14.433c4.081,4.222,8.911,7.71,14.201,10.257
			c4.992,2.404,10.386,3.969,15.891,4.604c5.516,0.636,11.131,0.347,16.551-0.859c5.2-1.157,10.212-3.153,14.78-5.893
			c4.719-2.83,8.966-6.439,12.508-10.651c3.502-4.164,6.311-8.891,8.294-13.958c0.949-2.424,1.702-4.922,2.261-7.464
			c0.034-0.154,0.087-0.788,0.186-0.873c0.052-0.044,0.291,0.004,0.362,0c0.755-0.038,1.523,0,2.279,0c2.106,0,4.212,0,6.319,0
			c0.595,0,1.476-0.167,2.051,0c0.281,0.081,0.164,0.017,0.245,0.325c0.1,0.38,0.234,0.719,0.501,1.017
			c0.559,0.625,1.282,0.712,2.07,0.691c7.331-0.195,14.663-0.39,21.994-0.585c5.277-0.14,10.579-0.191,15.839-0.676
			c2.71-0.25,5.434-0.62,8.053-1.378c2.057-0.595,4.243-1.42,5.934-2.772c0.862-0.69,1.504-1.546,1.804-2.616
			c0.273-0.972,0.292-1.989,0.467-2.978c0.217-1.227,0.719-2.382,1.126-3.553c0.932-2.684,1.434-5.494,2.325-8.19
			c0.427-1.291,1.058-2.478,1.583-3.728c0.439-1.045,0.709-2.149,0.903-3.264c0.475-2.735,0.585-5.552,0.565-8.323
			c-0.02-2.686-0.195-5.401-0.785-8.028c-0.517-2.302-1.402-4.604-2.976-6.398c-1.32-1.506-3.188-2.212-4.715-3.455
			c-1.986-1.616-3.463-3.808-5.356-5.539c-1.783-1.63-4.038-2.738-5.706-4.475c-1.432-1.492-2.169-3.58-3.005-5.431
			c-0.292-0.647-0.582-1.295-0.89-1.935c-0.271-0.565-0.695-1.157-0.765-1.771c-0.086-0.755-0.122-1.486-0.313-2.229
			c-0.477-1.857-1.477-3.404-2.695-4.863c-1.822-2.182-3.847-4.311-6.046-6.121c-1.14-0.938-2.519-1.978-4.033-2.181
			c-0.278-0.037-0.488-0.011-0.725-0.136c-0.659-0.349-1.318-1.058-1.908-1.517c-1.102-0.857-2.219-1.695-3.348-2.516
			c-4.731-3.447-9.639-6.666-14.848-9.348c-5.202-2.679-10.658-4.806-16.222-6.602c-5.621-1.815-11.371-3.252-17.157-4.433
			c-5.818-1.187-11.686-2.143-17.579-2.867c-5.988-0.736-11.99-1.324-18.008-1.755c-0.807-0.058-1.615-0.108-2.423-0.161
			c-0.547-0.036-1.383,0.058-1.885-0.168c-0.658-0.295-1.298-0.979-1.871-1.412c-0.827-0.624-1.654-1.248-2.482-1.872
			c-2.097-1.582-4.211-3.147-6.337-4.691c-5.115-3.713-10.26-7.382-15.479-10.948c-4.787-3.27-9.629-6.467-14.533-9.559
			c-5.303-3.343-10.672-6.572-16.102-9.704c-5.211-3.006-10.506-5.863-15.84-8.643c-5.124-2.67-10.302-5.25-15.533-7.704
			c-5.63-2.641-11.31-5.165-17.067-7.517c-5.539-2.264-11.147-4.341-16.83-6.214c-5.555-1.831-11.201-3.407-16.905-4.701
			c-5.787-1.313-11.643-2.335-17.529-3.086c-5.856-0.748-11.749-1.273-17.644-1.586c-6.129-0.326-12.259-0.596-18.397-0.661
			c-6.156-0.066-12.302,0.008-18.454,0.246c-5.776,0.224-11.556,0.629-17.308,1.202c-6.293,0.627-12.554,1.432-18.815,2.318
			c-5.588,0.79-11.169,1.732-16.712,2.795c-6.214,1.192-12.404,2.469-18.568,3.897c-5.719,1.324-11.414,2.818-17.036,4.508
			c-5.819,1.749-11.568,3.7-17.238,5.885c-5.628,2.169-11.129,4.633-16.564,7.245c-5.181,2.49-10.271,5.204-15.272,8.035
			c-5.323,3.014-10.589,6.129-15.773,9.377c-5.11,3.2-10.152,6.515-15.096,9.966c-4.225,2.95-8.373,6.003-12.453,9.152
			c-6.26,4.831-12.519,9.661-18.779,14.492c-3.993,3.082-7.994,6.155-11.86,9.396c-4.625,3.878-9.068,7.959-13.317,12.247
			c-1.955,1.973-3.849,4.012-5.623,6.15c-0.969,1.168-1.883,2.376-2.791,3.591c-0.708,0.948-1.392,1.939-2.269,2.742
			c-0.962,0.881-2.112,1.561-3.183,2.296c-1.066,0.731-2.097,1.506-3.099,2.322c-2.128,1.731-4.144,3.734-6.535,5.112
			c-1.54,0.888-3.352,1.059-4.88,1.932c-1.688,0.965-2.833,2.763-4.106,4.175c-1.613,1.789-3.363,3.305-5.558,4.332
			c-2.096,0.98-4.623,1.513-6.487,2.938c-1.306,0.998-1.901,2.756-2.445,4.234c-0.262,0.711-0.601,1.454-0.53,2.232
			c0.039,0.433,0.242,0.733,0.396,1.126c0.317,0.808,0.291,1.792,0.328,2.642c0.068,1.544,0.08,3.092,0.091,4.637
			c0.022,3.192-0.003,6.385-0.005,9.578c-0.001,1.544-0.006,3.088-0.003,4.632c0.001,0.669-0.009,1.369,0.214,2.009
			c0.317,0.911,1.065,1.527,1.975,1.79c0.256,0.074,0.519,0.119,0.783,0.147c0.438,0.045,0.566-0.098,0.595,0.366
			c0.098,1.599-0.005,3.249-0.039,4.852c-0.026,1.256-0.036,2.533-0.223,3.778c-0.105,0.697-0.357,1.304-0.551,1.975
			c-0.948,3.278,1.892,5.764,4.331,7.365c4.902,3.219,10.32,5.939,15.813,7.985c2.778,1.035,5.639,1.869,8.566,2.359
			c2.942,0.493,5.924,0.636,8.902,0.684c2.526,0.041,5.324,0.322,7.808-0.267c0.92-0.218,1.793-0.624,2.461-1.307
			c0.339-0.348,0.557-0.743,0.815-1.148c0.193-0.304,0.148-0.274,0.541-0.274c0.634,0,1.268,0,1.902,0
			C131.018,494.641,134.164,494.641,137.31,494.641z"/>
	</g>
	<g id="POLYLINE_15_">
		
			<path fill="none" stroke="#F368E0" stroke-width="3.25" stroke-linecap="round" stroke-linejoin="round" stroke-miterlimit="10" d="
			M506.826,386.478c2.252-0.002,5.668-0.749,4.816-3.747c-0.438-1.541-1.627-2.845-2.761-3.92c-2.144-2.032-4.261-4.094-6.385-6.148
			c-3.77-3.646-7.658-7.183-11.595-10.648c-4.001-3.522-8.088-6.955-12.298-10.225c-4.308-3.346-8.744-6.527-13.356-9.443
			c-4.562-2.884-9.311-5.464-14.223-7.703c-4.861-2.216-9.87-4.124-14.894-5.934c-5.123-1.845-10.298-3.546-15.534-5.043
			c-5.24-1.498-10.534-2.809-15.878-3.877c-5.41-1.081-10.864-1.907-16.344-2.535c-5.313-0.609-10.65-1.015-15.99-1.276
			c-5.616-0.274-11.234-0.354-16.856-0.352c-5.256,0.002-10.524,0.155-15.771,0.459c-5.486,0.318-10.952,0.854-16.392,1.631
			c-5.284,0.754-10.534,1.79-15.723,3.034c-5.282,1.265-10.514,2.727-15.677,4.413c-5.095,1.664-10.149,3.498-15.076,5.611
			c-5.111,2.192-10.123,4.574-15.019,7.213c-4.762,2.567-9.394,5.359-13.95,8.274c-4.419,2.827-8.738,5.837-12.916,9.01
			c-4.28,3.25-8.465,6.644-12.345,10.368c-1.939,1.861-3.807,3.793-5.574,5.819c-1.614,1.852-3.304,3.784-4.454,5.97
			c-0.82,1.56-1.237,3.42,0.502,4.493c1.479,0.912,3.38,1.129,5.068,1.321c2.593,0.295,5.212,0.351,7.819,0.391
			c0.933,0.014,1.867,0.019,2.801,0.028c2.669,0.027,5.339,0.054,8.008,0.081c4.143,0.042,8.285,0.084,12.428,0.126
			c5.399,0.055,10.798,0.109,16.196,0.164c6.469,0.066,12.937,0.131,19.406,0.197c7.229,0.073,14.458,0.146,21.687,0.22
			c7.823,0.079,15.645,0.158,23.468,0.238c8.164,0.083,16.328,0.165,24.492,0.248c8.249,0.084,16.499,0.167,24.748,0.251
			c8.156,0.083,16.311,0.165,24.467,0.248c7.806,0.079,15.611,0.158,23.417,0.237c7.204,0.073,14.407,0.146,21.611,0.219
			c6.416,0.065,12.832,0.13,19.248,0.195c5.375,0.054,10.749,0.109,16.124,0.163c4.092,0.041,8.184,0.083,12.275,0.124
			c2.61,0.026,5.219,0.053,7.829,0.079C505.093,386.461,505.96,386.47,506.826,386.478z"/>
	</g>
	<g id="POLYLINE_14_">
		
			<path fill="none" stroke="#F368E0" stroke-width="3.25" stroke-linecap="round" stroke-linejoin="round" stroke-miterlimit="10" d="
			M616.361,412.939c-1.026-2.079-2.365-5.179-1.064-7.464c0.99-1.74,3.217-1.989,5.019-1.844c4.51,0.364,8.897,2.674,12.7,4.975
			c4.096,2.478,7.921,5.426,11.411,8.7c3.429,3.217,6.669,6.792,9.057,10.864c1.344,2.293,3.127,5.663,2.091,8.421
			c-0.621,1.653-2.307,2.288-3.954,2.368c-4.333,0.211-8.832-2.059-12.498-4.126c-4.168-2.349-8.056-5.216-11.623-8.399
			c-3.515-3.137-6.813-6.621-9.418-10.56C617.454,414.927,616.88,413.949,616.361,412.939z"/>
	</g>
	<g id="POLYLINE_13_">
		
			<path fill="none" stroke="#F368E0" stroke-width="3.25" stroke-linecap="round" stroke-linejoin="round" stroke-miterlimit="10" d="
			M105.208,424.352c2.011-3.243,4.788-6.026,7.618-8.557c3.071-2.747,6.382-5.239,9.859-7.448c3.366-2.138,6.952-4.13,10.772-5.328
			c1.849-0.579,4.612-1.382,6.449-0.242c1.707,1.059,1.074,3.368,0.423,4.855c-0.729,1.665-1.898,3.123-3.067,4.501
			c-1.236,1.458-2.569,2.837-3.963,4.146c-3.106,2.918-6.476,5.549-10.027,7.904c-3.282,2.177-6.796,4.29-10.526,5.599
			c-2.168,0.761-5.043,1.703-7.332,0.859c-1.957-0.722-1.813-2.794-1.168-4.41C104.508,425.577,104.842,424.953,105.208,424.352z"/>
	</g>
</g>
</svg>
