<?xml version="1.0" encoding="utf-8"?>
<!-- Generator: Adobe Illustrator 23.0.3, SVG Export Plug-In . SVG Version: 6.00 Build 0)  -->
<svg version="1.1" id="Layer_1" xmlns="http://www.w3.org/2000/svg" xmlns:xlink="http://www.w3.org/1999/xlink" x="0px" y="0px"
	 viewBox="0 0 120.8 38" style="enable-background:new 0 0 120.8 38;" xml:space="preserve">
<style type="text/css">
	.st0{fill-rule:evenodd;clip-rule:evenodd;fill:#EE3F30;}
	.st1{fill-rule:evenodd;clip-rule:evenodd;fill:#0C405B;}
</style>
<path class="st0" d="M2.8,4.4c0,0,3.2,2.3,9.6,2.3S22,4.4,22,4.4h-9.6C12.4,4.4,2.8,4.4,2.8,4.4z M2.8,19.8h9.6H22
	c0,0-3.2-2.3-9.6-2.3S2.8,19.8,2.8,19.8 M23.9,4.4c-0.7,0.1-2.5,1-5.1,1.9c0,0,0.6,2.2,0.6,5.4s-0.6,5.4-0.6,5.4
	c2.6,0.9,4.3,1.8,5.1,1.9c0.5,0.1,1,0,1.5-1c0.3-0.7,1.1-2.8,1.1-6.3s-0.8-5.6-1.1-6.3C24.9,4.4,24.4,4.3,23.9,4.4 M2.7,5.9
	c-0.5-0.1-0.9,0-1.3,0.9c-0.3,0.6-1,2.5-1,5.6s0.7,5,1,5.6c0.4,0.9,0.8,1,1.3,0.9c0.2,0,1.8-0.7,3.1-1.3C5.7,17,5.3,15,5.3,12.3
	S5.7,7.6,5.8,7C4.6,6.6,2.9,5.9,2.7,5.9"/>
<path class="st1" d="M65.2,4.4l1,4c-0.9,0-1.6,0.3-2.1,0.8c-0.5,0.6-0.8,1.4-0.8,2.6v8.1h-3.9v-7.6c0-1.6,0.2-2.9,0.6-3.9
	c0.4-1.1,1-1.9,1.8-2.5c0.7-0.6,1.5-1,2.5-1.3C64.6,4.5,64.9,4.4,65.2,4.4z M58.6,8.5v4.9c0,1.5-0.2,2.7-0.8,3.5
	c-0.6,0.8-1.2,1.4-2,1.8c-0.8,0.5-1.7,0.7-2.6,0.8c-0.9,0.1-1.7,0.1-2.4,0.1c-1.3,0-2.6-0.4-3.6-1.1c-1.1-0.7-1.6-1.9-1.6-3.6
	c0-1.5,0.5-2.6,1.4-3.3c0.9-0.6,2.1-1.1,3.6-1.3c0.2,0,0.4,0,0.7-0.1c0.2,0,0.6-0.1,0.9-0.1c1.7-0.2,2.5-0.7,2.5-1.4
	c0-0.6-0.3-0.9-0.9-1.1c-0.6-0.1-1.1-0.2-1.6-0.2s-1,0.1-1.4,0.2c-0.4,0.1-0.7,0.4-0.9,0.8H46c0.1-1.1,0.7-2.1,1.6-2.8
	c1-0.9,2.5-1.3,4.4-1.3c2.2,0,3.8,0.4,4.9,1.1C58,6.2,58.6,7.2,58.6,8.5z M54.9,12.3c-0.6,0.2-1.3,0.5-2.3,0.7l-1.3,0.3
	c-0.7,0.2-1.2,0.4-1.5,0.7c-0.3,0.4-0.4,0.8-0.4,1.2c0,0.5,0.2,1,0.5,1.3c0.3,0.3,0.8,0.4,1.5,0.4c1,0,1.9-0.3,2.5-0.9
	c0.6-0.6,0.9-1.5,0.9-2.5h0.1V12.3z M85.8,4.3c-1,0.1-1.7,0.5-1.9,1.5l-2.2,9.3L79.6,4.4h-0.7h-0.6h-1c-1,0-1.7,0.5-1.9,1.4
	l-1.9,9.3L71,4.4h-4l4.3,15.5h1.4h1.1h1.6l2.3-10.7L80,19.8h4.1l4.3-15.5H85.8z M100.7,8.5v5c0,1.5-0.2,2.7-0.8,3.5
	c-0.6,0.8-1.2,1.4-2,1.8c-0.8,0.5-1.7,0.7-2.6,0.8c-0.9,0.1-1.7,0.1-2.4,0.1c-1.3,0-2.6-0.4-3.6-1.1c-1.1-0.7-1.6-1.9-1.6-3.6
	c0-1.5,0.5-2.6,1.4-3.3c0.9-0.6,2.1-1.1,3.6-1.3c0.2,0,0.4,0,0.7-0.1c0.2,0,0.6-0.1,0.9-0.1c1.7-0.3,2.5-0.8,2.5-1.5
	c0-0.6-0.3-0.9-0.9-1.1c-0.6-0.1-1.1-0.2-1.6-0.2s-1,0.1-1.4,0.2C92.5,7.7,92.2,8,92,8.4h-3.9c0.1-1.1,0.7-2.1,1.6-2.8
	c1-0.9,2.5-1.3,4.4-1.3c2.2,0,3.8,0.4,4.9,1.1C100.1,6.2,100.6,7.2,100.7,8.5z M97,12.3c-0.6,0.2-1.3,0.5-2.3,0.7l-1.3,0.3
	c-0.7,0.2-1.2,0.4-1.5,0.7c-0.3,0.4-0.4,0.8-0.4,1.2c0,0.5,0.2,1,0.5,1.3s0.8,0.4,1.5,0.4c1,0,1.9-0.3,2.5-0.9
	c0.6-0.6,0.9-1.5,0.9-2.5H97V12.3z M104.6,1c-0.4-0.3-0.8-0.5-1.4-0.5h-1.9v19.3h3.9V2.3C105.2,1.8,105,1.3,104.6,1z M120.8,12.1
	v0.4v0.2c0,0.2-0.1,0.3-0.1,0.4H111c0,1.2,0.3,2,0.8,2.6c0.5,0.6,1.2,0.9,2.2,0.9c0.6,0,1.2-0.1,1.6-0.4c0.1,0,0.2-0.1,0.3-0.2
	c0.1-0.1,0.2-0.2,0.3-0.3c0-0.1,0.2-0.2,0.4-0.4c0.2-0.2,0.6-0.3,1-0.3h2.8c-0.5,1.6-1.2,2.8-2.4,3.6c-1.2,0.9-2.6,1.3-4.4,1.3
	c-2.1,0-3.8-0.7-5-2.1c-1.2-1.3-1.8-3.2-1.8-5.7c0-2.4,0.5-4.3,1.7-5.6c1.2-1.4,2.9-2.1,5-2.1c2.2,0,4,0.6,5.5,2
	C120.2,7.7,120.8,9.6,120.8,12.1z M116.4,10.6c-0.1-1-0.3-1.7-0.8-2.2s-1.2-0.8-2.1-0.8c-0.8,0-1.5,0.3-2,0.8s-0.8,1.2-0.8,2.2
	H116.4z M41,15.2c-0.2,0.2-0.4,0.3-0.5,0.4c-0.1,0.1-0.2,0.2-0.3,0.3c-0.1,0.1-0.2,0.2-0.3,0.2c-0.5,0.3-1,0.4-1.7,0.4
	c-1,0-1.7-0.3-2.2-0.9c-0.7-0.7-1-1.9-1-3.6s0.3-2.9,1-3.7c0.5-0.5,1.2-0.8,2.1-0.8c0.9,0,1.6,0.3,2.1,0.8l0.1,0.1h4.2
	c-0.3-0.8-0.7-1.5-1.2-2.1c-1.3-1.3-3-2-5.3-2c-2.2,0-3.9,0.7-5.1,2.1c-1.2,1.3-1.8,3.2-1.8,5.6c0,2.5,0.6,4.4,1.8,5.7
	c1.2,1.4,2.9,2.1,5.1,2.1c1.8,0,3.3-0.4,4.5-1.3c1.2-0.8,2-2,2.4-3.6H42C41.5,15,41.2,15.1,41,15.2z M34.9,27.2l-0.4,3.5h3.9
	l-0.3,1.9h-3.8l-0.6,5h-2.4l1.5-12.4h6.9l-0.2,2H34.9z M43.3,31.1c0.4,0,0.8-0.1,1.1-0.2s0.5-0.3,0.7-0.5s0.3-0.5,0.4-0.8
	c0.1-0.3,0.1-0.6,0.1-0.9c0-0.5-0.2-0.9-0.5-1.2c-0.3-0.3-0.8-0.4-1.4-0.4h-1.1l-0.5,4H43.3z M44.1,25.2c0.7,0,1.3,0.1,1.9,0.2
	c0.5,0.2,0.9,0.4,1.3,0.6c0.3,0.3,0.6,0.6,0.7,1c0.2,0.4,0.2,0.8,0.2,1.2c0,0.5-0.1,0.9-0.2,1.3c-0.1,0.4-0.3,0.8-0.6,1.1
	c-0.2,0.3-0.5,0.6-0.9,0.9c-0.3,0.3-0.7,0.5-1.2,0.6c0.1,0.1,0.3,0.2,0.4,0.3c0.1,0.1,0.2,0.3,0.3,0.5l1.9,4.7h-2.2
	c-0.4,0-0.7-0.2-0.8-0.5L43.4,33c-0.1-0.1-0.2-0.3-0.3-0.3c-0.1-0.1-0.3-0.1-0.5-0.1h-0.7l-0.6,5h-2.4l1.6-12.4H44.1z M55.4,32.9
	L54.7,29c0-0.2-0.1-0.4-0.1-0.7c-0.1-0.3-0.1-0.6-0.1-0.9c-0.1,0.3-0.2,0.6-0.4,0.9c-0.1,0.3-0.2,0.5-0.3,0.7l-1.7,3.9H55.4z
	 M59.4,37.6h-1.9c-0.2,0-0.4-0.1-0.5-0.2c-0.1-0.1-0.2-0.2-0.2-0.4l-0.5-2.4h-4.5l-1,2.4c-0.1,0.1-0.2,0.3-0.3,0.4
	c-0.2,0.1-0.3,0.2-0.5,0.2h-2l6-12.4h2.5L59.4,37.6z M70.8,25.2l-1.5,12.4H68c-0.2,0-0.4,0-0.5-0.1s-0.2-0.2-0.3-0.3l-4.6-8.1
	c0,0.1,0,0.3,0,0.4s0,0.3,0,0.4l-0.9,7.7h-2.2L61,25.2h1.3c0.1,0,0.2,0,0.3,0s0.1,0,0.2,0.1c0.1,0,0.1,0.1,0.2,0.1
	c0,0.1,0.1,0.1,0.1,0.2l4.6,8.1c0-0.2,0-0.4,0-0.5c0-0.2,0-0.3,0.1-0.5l0.9-7.5H70.8z M75.4,35.6c0.3,0,0.6,0,0.8-0.1
	c0.2,0,0.4-0.1,0.6-0.2c0.2-0.1,0.3-0.2,0.4-0.3s0.2-0.2,0.3-0.2c0.1-0.1,0.2-0.1,0.3-0.2c0.1-0.1,0.2-0.1,0.2-0.1
	c0.1,0,0.1,0,0.2,0s0.1,0.1,0.1,0.1l0.8,1c-0.5,0.6-1.1,1.1-1.8,1.4c-0.7,0.3-1.5,0.5-2.4,0.5c-0.7,0-1.4-0.1-2-0.4
	c-0.6-0.3-1.1-0.6-1.5-1.1s-0.7-1-0.9-1.7c-0.2-0.6-0.3-1.3-0.3-2.1c0-0.7,0.1-1.4,0.2-2c0.2-0.6,0.4-1.2,0.6-1.7
	c0.3-0.5,0.6-1,1-1.4s0.8-0.8,1.3-1.1c0.5-0.3,1-0.5,1.5-0.7s1.1-0.2,1.7-0.2c0.4,0,0.8,0,1.2,0.1c0.4,0.1,0.7,0.2,1,0.3
	s0.6,0.3,0.8,0.5c0.2,0.2,0.4,0.4,0.6,0.7l-0.8,1c-0.1,0.1-0.1,0.1-0.2,0.2S78.9,28,78.8,28c-0.1,0-0.2,0-0.4-0.1
	c-0.1-0.1-0.2-0.2-0.4-0.3c-0.2-0.1-0.4-0.2-0.6-0.3c-0.3-0.1-0.6-0.1-1-0.1c-0.5,0-1,0.1-1.5,0.3c-0.5,0.2-0.9,0.6-1.2,1
	c-0.3,0.4-0.6,0.9-0.8,1.5c-0.2,0.6-0.3,1.3-0.3,2c0,0.5,0.1,1,0.2,1.5c0.1,0.4,0.3,0.8,0.5,1.1s0.5,0.5,0.8,0.7
	C74.6,35.5,75,35.6,75.4,35.6 M91.5,25.2l-1.6,12.4h-2.5l0.7-5.4h-4.9l-0.7,5.4H80l1.5-12.4H84l-0.6,5.3h4.9l0.6-5.3H91.5z
	 M94.6,37.6h-2.4l1.5-12.4H96L94.6,37.6z M103,27.6c-0.1,0.1-0.2,0.2-0.2,0.3c-0.1,0.1-0.2,0.1-0.3,0.1c-0.1,0-0.2,0-0.3-0.1
	c-0.1-0.1-0.3-0.2-0.4-0.3c-0.2-0.1-0.3-0.2-0.5-0.3c-0.2-0.1-0.5-0.1-0.7-0.1c-0.3,0-0.5,0-0.7,0.1s-0.4,0.2-0.5,0.3
	c-0.1,0.1-0.2,0.3-0.3,0.5C99,28.3,99,28.5,99,28.7s0.1,0.4,0.2,0.6s0.3,0.3,0.5,0.4s0.4,0.2,0.7,0.3c0.3,0.1,0.5,0.2,0.8,0.3
	c0.3,0.1,0.5,0.2,0.8,0.4c0.3,0.1,0.5,0.3,0.7,0.5s0.4,0.5,0.5,0.8c0.1,0.3,0.2,0.7,0.2,1.1c0,0.6-0.1,1.2-0.3,1.7
	c-0.2,0.5-0.5,1-0.9,1.4s-0.8,0.7-1.4,0.9c-0.5,0.2-1.1,0.4-1.8,0.4c-0.3,0-0.7,0-1-0.1s-0.7-0.2-1-0.3s-0.6-0.3-0.8-0.5
	c-0.3-0.2-0.5-0.4-0.7-0.7l0.8-1.1c0.1-0.1,0.1-0.1,0.2-0.2c0.1-0.1,0.2-0.1,0.3-0.1c0.1,0,0.3,0.1,0.4,0.2c0.1,0.1,0.3,0.2,0.5,0.4
	c0.2,0.1,0.4,0.3,0.6,0.4c0.2,0.1,0.5,0.2,0.9,0.2c0.6,0,1-0.2,1.3-0.5s0.5-0.8,0.5-1.4c0-0.3-0.1-0.5-0.2-0.7s-0.3-0.3-0.5-0.4
	c-0.2-0.1-0.4-0.2-0.7-0.3c-0.3-0.1-0.5-0.2-0.8-0.3s-0.5-0.2-0.8-0.4c-0.3-0.1-0.5-0.3-0.7-0.5s-0.4-0.5-0.5-0.8s-0.2-0.7-0.2-1.2
	s0.1-1,0.3-1.5c0.2-0.5,0.5-0.9,0.8-1.3c0.4-0.4,0.8-0.7,1.3-0.9c0.5-0.2,1.1-0.3,1.7-0.3c0.3,0,0.6,0,0.9,0.1s0.6,0.2,0.8,0.3
	c0.3,0.1,0.5,0.3,0.7,0.4c0.2,0.2,0.4,0.4,0.6,0.6L103,27.6z M107.3,27.2l-0.4,3.2h3.6l-0.3,1.9h-3.5l-0.4,3.4h4.6l-0.2,1.9h-7
	l1.4-12.4h7l-0.2,2H107.3z M115.7,27.2l-0.4,3.2h3.6l-0.3,1.9h-3.5l-0.4,3.4h4.6l-0.2,1.9h-7l1.4-12.4h7l-0.2,2H115.7z"/>
</svg>
